<?xml version="1.0" encoding="UTF-8" standalone="no"?>
<!DOCTYPE svg PUBLIC "-//W3C//DTD SVG 1.1//EN"
 "http://www.w3.org/Graphics/SVG/1.1/DTD/svg11.dtd">
<!-- Generated by graphviz version 2.38.0 (20140413.2041)
 -->
<!-- Title: snakemake_dag Pages: 1 -->
<svg width="1139pt" height="980pt"
 viewBox="0.00 0.00 1139.14 980.00" xmlns="http://www.w3.org/2000/svg" xmlns:xlink="http://www.w3.org/1999/xlink">
<g id="graph0" class="graph" transform="scale(1 1) rotate(0) translate(4 976)">
<title>snakemake_dag</title>
<polygon fill="white" stroke="none" points="-4,4 -4,-976 1135.14,-976 1135.14,4 -4,4"/>
<!-- 0 -->
<g id="node1" class="node"><title>0</title>
<path fill="none" stroke="#56d87b" stroke-width="2" d="M660.142,-36C660.142,-36 610.142,-36 610.142,-36 604.142,-36 598.142,-30 598.142,-24 598.142,-24 598.142,-12 598.142,-12 598.142,-6 604.142,-0 610.142,-0 610.142,-0 660.142,-0 660.142,-0 666.142,-0 672.142,-6 672.142,-12 672.142,-12 672.142,-24 672.142,-24 672.142,-30 666.142,-36 660.142,-36"/>
<text text-anchor="middle" x="635.142" y="-15.5" font-family="sans" font-size="10.00">umi_fidelity</text>
</g>
<!-- 1 -->
<g id="node2" class="node"><title>1</title>
<path fill="none" stroke="#567bd8" stroke-width="2" d="M255.642,-108C255.642,-108 108.642,-108 108.642,-108 102.642,-108 96.6419,-102 96.6419,-96 96.6419,-96 96.6419,-84 96.6419,-84 96.6419,-78 102.642,-72 108.642,-72 108.642,-72 255.642,-72 255.642,-72 261.642,-72 267.642,-78 267.642,-84 267.642,-84 267.642,-96 267.642,-96 267.642,-102 261.642,-108 255.642,-108"/>
<text text-anchor="middle" x="182.142" y="-87.5" font-family="sans" font-size="10.00">plot_frequencies_fidelity_based</text>
</g>
<!-- 1&#45;&gt;0 -->
<g id="edge1" class="edge"><title>1&#45;&gt;0</title>
<path fill="none" stroke="grey" stroke-width="2" d="M267.826,-73.5446C270.97,-73.0166 274.083,-72.5 277.142,-72 388.318,-53.8273 519.372,-35.1122 587.926,-25.5286"/>
<polygon fill="grey" stroke="grey" stroke-width="2" points="588.557,-28.9745 597.978,-24.1262 587.59,-22.0416 588.557,-28.9745"/>
</g>
<!-- 2 -->
<g id="node3" class="node"><title>2</title>
<path fill="none" stroke="#56d8b1" stroke-width="2" d="M400.142,-108C400.142,-108 298.142,-108 298.142,-108 292.142,-108 286.142,-102 286.142,-96 286.142,-96 286.142,-84 286.142,-84 286.142,-78 292.142,-72 298.142,-72 298.142,-72 400.142,-72 400.142,-72 406.142,-72 412.142,-78 412.142,-84 412.142,-84 412.142,-96 412.142,-96 412.142,-102 406.142,-108 400.142,-108"/>
<text text-anchor="middle" x="349.142" y="-87.5" font-family="sans" font-size="10.00">umi_size_distributions</text>
</g>
<!-- 2&#45;&gt;0 -->
<g id="edge2" class="edge"><title>2&#45;&gt;0</title>
<path fill="none" stroke="grey" stroke-width="2" d="M412.26,-73.5515C465.397,-60.5459 540.202,-42.2371 588.182,-30.4936"/>
<polygon fill="grey" stroke="grey" stroke-width="2" points="589.115,-33.8687 597.996,-28.0916 587.451,-27.0694 589.115,-33.8687"/>
</g>
<!-- 3 -->
<g id="node4" class="node"><title>3</title>
<path fill="none" stroke="#c6d856" stroke-width="2" d="M206.642,-252C206.642,-252 171.642,-252 171.642,-252 165.642,-252 159.642,-246 159.642,-240 159.642,-240 159.642,-228 159.642,-228 159.642,-222 165.642,-216 171.642,-216 171.642,-216 206.642,-216 206.642,-216 212.642,-216 218.642,-222 218.642,-228 218.642,-228 218.642,-240 218.642,-240 218.642,-246 212.642,-252 206.642,-252"/>
<text text-anchor="middle" x="189.142" y="-231.5" font-family="sans" font-size="10.00">flagstat2</text>
</g>
<!-- 3&#45;&gt;0 -->
<g id="edge3" class="edge"><title>3&#45;&gt;0</title>
<path fill="none" stroke="grey" stroke-width="2" d="M164.205,-215.939C121.941,-185.034 44.7697,-118.668 87.1419,-72 120.538,-35.2186 461.126,-23.2233 587.92,-20.0144"/>
<polygon fill="grey" stroke="grey" stroke-width="2" points="588.184,-23.5091 598.095,-19.7643 588.012,-16.5112 588.184,-23.5091"/>
</g>
<!-- 4 -->
<g id="node5" class="node"><title>4</title>
<path fill="none" stroke="#56d0d8" stroke-width="2" d="M47.6419,-468C47.6419,-468 12.6419,-468 12.6419,-468 6.64186,-468 0.641858,-462 0.641858,-456 0.641858,-456 0.641858,-444 0.641858,-444 0.641858,-438 6.64186,-432 12.6419,-432 12.6419,-432 47.6419,-432 47.6419,-432 53.6419,-432 59.6419,-438 59.6419,-444 59.6419,-444 59.6419,-456 59.6419,-456 59.6419,-462 53.6419,-468 47.6419,-468"/>
<text text-anchor="middle" x="30.1419" y="-447.5" font-family="sans" font-size="10.00">flagstat1</text>
</g>
<!-- 4&#45;&gt;0 -->
<g id="edge4" class="edge"><title>4&#45;&gt;0</title>
<path fill="none" stroke="grey" stroke-width="2" d="M30.1419,-431.951C30.1419,-405.292 30.1419,-352.115 30.1419,-307 30.1419,-307 30.1419,-307 30.1419,-161 30.1419,-117.449 35.6057,-97.1769 71.1419,-72 112.901,-42.4143 459.613,-25.9014 587.769,-20.762"/>
<polygon fill="grey" stroke="grey" stroke-width="2" points="588.193,-24.248 598.047,-20.3554 587.917,-17.2535 588.193,-24.248"/>
</g>
<!-- 5 -->
<g id="node6" class="node"><title>5</title>
<path fill="none" stroke="#56c9d8" stroke-width="2" d="M575.642,-108C575.642,-108 442.642,-108 442.642,-108 436.642,-108 430.642,-102 430.642,-96 430.642,-96 430.642,-84 430.642,-84 430.642,-78 436.642,-72 442.642,-72 442.642,-72 575.642,-72 575.642,-72 581.642,-72 587.642,-78 587.642,-84 587.642,-84 587.642,-96 587.642,-96 587.642,-102 581.642,-108 575.642,-108"/>
<text text-anchor="middle" x="509.142" y="-87.5" font-family="sans" font-size="10.00">umi_error_distributions_read</text>
</g>
<!-- 5&#45;&gt;0 -->
<g id="edge5" class="edge"><title>5&#45;&gt;0</title>
<path fill="none" stroke="grey" stroke-width="2" d="M539.965,-71.8761C556.592,-62.6388 577.306,-51.1308 595.161,-41.2116"/>
<polygon fill="grey" stroke="grey" stroke-width="2" points="597.158,-44.1058 604.2,-36.1898 593.759,-37.9867 597.158,-44.1058"/>
</g>
<!-- 6 -->
<g id="node7" class="node"><title>6</title>
<path fill="none" stroke="#d8b456" stroke-width="2" d="M393.142,-180C393.142,-180 295.142,-180 295.142,-180 289.142,-180 283.142,-174 283.142,-168 283.142,-168 283.142,-156 283.142,-156 283.142,-150 289.142,-144 295.142,-144 295.142,-144 393.142,-144 393.142,-144 399.142,-144 405.142,-150 405.142,-156 405.142,-156 405.142,-168 405.142,-168 405.142,-174 399.142,-180 393.142,-180"/>
<text text-anchor="middle" x="344.142" y="-159.5" font-family="sans" font-size="10.00">merge_fidelity_based</text>
</g>
<!-- 6&#45;&gt;0 -->
<g id="edge6" class="edge"><title>6&#45;&gt;0</title>
<path fill="none" stroke="grey" stroke-width="2" d="M405.189,-146.011C408.214,-145.319 411.211,-144.646 414.142,-144 494.668,-126.266 531.847,-159.626 596.142,-108 615.184,-92.7097 625.162,-66.252 630.237,-46.1466"/>
<polygon fill="grey" stroke="grey" stroke-width="2" points="633.67,-46.8308 632.466,-36.3046 626.843,-45.2844 633.67,-46.8308"/>
</g>
<!-- 7 -->
<g id="node8" class="node"><title>7</title>
<path fill="none" stroke="#97d856" stroke-width="2" d="M576.642,-180C576.642,-180 435.642,-180 435.642,-180 429.642,-180 423.642,-174 423.642,-168 423.642,-168 423.642,-156 423.642,-156 423.642,-150 429.642,-144 435.642,-144 435.642,-144 576.642,-144 576.642,-144 582.642,-144 588.642,-150 588.642,-156 588.642,-156 588.642,-168 588.642,-168 588.642,-174 582.642,-180 576.642,-180"/>
<text text-anchor="middle" x="506.142" y="-159.5" font-family="sans" font-size="10.00">merge_fidelity_transitversions</text>
</g>
<!-- 7&#45;&gt;0 -->
<g id="edge7" class="edge"><title>7&#45;&gt;0</title>
<path fill="none" stroke="grey" stroke-width="2" d="M581.947,-143.871C600.589,-136.008 618.516,-124.581 630.142,-108 642.603,-90.2279 642.911,-65.2152 640.642,-46.2302"/>
<polygon fill="grey" stroke="grey" stroke-width="2" points="644.07,-45.4906 639.129,-36.1185 637.147,-46.5264 644.07,-45.4906"/>
</g>
<!-- 8 -->
<g id="node9" class="node"><title>8</title>
<path fill="none" stroke="#56d8c9" stroke-width="2" d="M765.142,-180C765.142,-180 619.142,-180 619.142,-180 613.142,-180 607.142,-174 607.142,-168 607.142,-168 607.142,-156 607.142,-156 607.142,-150 613.142,-144 619.142,-144 619.142,-144 765.142,-144 765.142,-144 771.142,-144 777.142,-150 777.142,-156 777.142,-156 777.142,-168 777.142,-168 777.142,-174 771.142,-180 765.142,-180"/>
<text text-anchor="middle" x="692.142" y="-159.5" font-family="sans" font-size="10.00">merge_fidelity_transvers_types</text>
</g>
<!-- 8&#45;&gt;0 -->
<g id="edge8" class="edge"><title>8&#45;&gt;0</title>
<path fill="none" stroke="grey" stroke-width="2" d="M689.059,-143.768C685.429,-125.462 678.543,-95.9219 668.142,-72 664.143,-62.8022 658.723,-53.3292 653.432,-44.9817"/>
<polygon fill="grey" stroke="grey" stroke-width="2" points="656.231,-42.8677 647.816,-36.4317 650.381,-46.7112 656.231,-42.8677"/>
</g>
<!-- 9 -->
<g id="node10" class="node"><title>9</title>
<path fill="none" stroke="#56b9d8" stroke-width="2" d="M951.142,-108C951.142,-108 861.142,-108 861.142,-108 855.142,-108 849.142,-102 849.142,-96 849.142,-96 849.142,-84 849.142,-84 849.142,-78 855.142,-72 861.142,-72 861.142,-72 951.142,-72 951.142,-72 957.142,-72 963.142,-78 963.142,-84 963.142,-84 963.142,-96 963.142,-96 963.142,-102 957.142,-108 951.142,-108"/>
<text text-anchor="middle" x="906.142" y="-87.5" font-family="sans" font-size="10.00">plot_cumulative_err</text>
</g>
<!-- 9&#45;&gt;0 -->
<g id="edge9" class="edge"><title>9&#45;&gt;0</title>
<path fill="none" stroke="grey" stroke-width="2" d="M849.001,-74.2403C799.378,-61.4225 728.391,-43.0866 682.039,-31.1135"/>
<polygon fill="grey" stroke="grey" stroke-width="2" points="682.809,-27.6977 672.251,-28.5854 681.058,-34.4752 682.809,-27.6977"/>
</g>
<!-- 10 -->
<g id="node11" class="node"><title>10</title>
<path fill="none" stroke="#56d882" stroke-width="2" d="M1081.14,-108C1081.14,-108 997.142,-108 997.142,-108 991.142,-108 985.142,-102 985.142,-96 985.142,-96 985.142,-84 985.142,-84 985.142,-78 991.142,-72 997.142,-72 997.142,-72 1081.14,-72 1081.14,-72 1087.14,-72 1093.14,-78 1093.14,-84 1093.14,-84 1093.14,-96 1093.14,-96 1093.14,-102 1087.14,-108 1081.14,-108"/>
<text text-anchor="middle" x="1039.14" y="-87.5" font-family="sans" font-size="10.00">plot_scatter_errors</text>
</g>
<!-- 10&#45;&gt;0 -->
<g id="edge10" class="edge"><title>10&#45;&gt;0</title>
<path fill="none" stroke="grey" stroke-width="2" d="M985.121,-74.8366C980.741,-73.8277 976.374,-72.8678 972.142,-72 869.431,-50.9399 747.62,-33.6621 682.241,-25.0066"/>
<polygon fill="grey" stroke="grey" stroke-width="2" points="682.616,-21.5257 672.245,-23.6922 681.703,-28.466 682.616,-21.5257"/>
</g>
<!-- 11 -->
<g id="node12" class="node"><title>11</title>
<path fill="none" stroke="#8fd856" stroke-width="2" d="M925.142,-180C925.142,-180 807.142,-180 807.142,-180 801.142,-180 795.142,-174 795.142,-168 795.142,-168 795.142,-156 795.142,-156 795.142,-150 801.142,-144 807.142,-144 807.142,-144 925.142,-144 925.142,-144 931.142,-144 937.142,-150 937.142,-156 937.142,-156 937.142,-168 937.142,-168 937.142,-174 931.142,-180 925.142,-180"/>
<text text-anchor="middle" x="866.142" y="-159.5" font-family="sans" font-size="10.00">merge_fidelity_mutations</text>
</g>
<!-- 11&#45;&gt;0 -->
<g id="edge11" class="edge"><title>11&#45;&gt;0</title>
<path fill="none" stroke="grey" stroke-width="2" d="M838.278,-143.871C796.654,-118.284 718.191,-70.0521 671.911,-41.6028"/>
<polygon fill="grey" stroke="grey" stroke-width="2" points="673.457,-38.4445 663.105,-36.1893 669.791,-44.4079 673.457,-38.4445"/>
</g>
<!-- 12 -->
<g id="node13" class="node"><title>12</title>
<path fill="none" stroke="#566bd8" stroke-width="2" d="M1119.14,-180C1119.14,-180 967.142,-180 967.142,-180 961.142,-180 955.142,-174 955.142,-168 955.142,-168 955.142,-156 955.142,-156 955.142,-150 961.142,-144 967.142,-144 967.142,-144 1119.14,-144 1119.14,-144 1125.14,-144 1131.14,-150 1131.14,-156 1131.14,-156 1131.14,-168 1131.14,-168 1131.14,-174 1125.14,-180 1119.14,-180"/>
<text text-anchor="middle" x="1043.14" y="-159.5" font-family="sans" font-size="10.00">merge_fidelity_single_mutations</text>
</g>
<!-- 12&#45;&gt;0 -->
<g id="edge12" class="edge"><title>12&#45;&gt;0</title>
<path fill="none" stroke="grey" stroke-width="2" d="M963.491,-143.952C925.602,-134.897 879.982,-122.609 840.142,-108 805.427,-95.2711 798.943,-86.9862 765.142,-72 737.8,-59.8778 706.801,-47.1992 681.932,-37.283"/>
<polygon fill="grey" stroke="grey" stroke-width="2" points="682.962,-33.926 672.376,-33.4879 680.378,-40.4317 682.962,-33.926"/>
</g>
<!-- 12&#45;&gt;9 -->
<g id="edge22" class="edge"><title>12&#45;&gt;9</title>
<path fill="none" stroke="grey" stroke-width="2" d="M1009.63,-143.876C991.3,-134.512 968.406,-122.814 948.813,-112.803"/>
<polygon fill="grey" stroke="grey" stroke-width="2" points="950.282,-109.623 939.785,-108.19 947.097,-115.857 950.282,-109.623"/>
</g>
<!-- 12&#45;&gt;10 -->
<g id="edge23" class="edge"><title>12&#45;&gt;10</title>
<path fill="none" stroke="grey" stroke-width="2" d="M1042.15,-143.697C1041.71,-135.983 1041.18,-126.712 1040.69,-118.112"/>
<polygon fill="grey" stroke="grey" stroke-width="2" points="1044.18,-117.888 1040.12,-108.104 1037.2,-118.288 1044.18,-117.888"/>
</g>
<!-- 13 -->
<g id="node14" class="node"><title>13</title>
<path fill="none" stroke="#569ad8" stroke-width="2" d="M399.142,-252C399.142,-252 289.142,-252 289.142,-252 283.142,-252 277.142,-246 277.142,-240 277.142,-240 277.142,-228 277.142,-228 277.142,-222 283.142,-216 289.142,-216 289.142,-216 399.142,-216 399.142,-216 405.142,-216 411.142,-222 411.142,-228 411.142,-228 411.142,-240 411.142,-240 411.142,-246 405.142,-252 399.142,-252"/>
<text text-anchor="middle" x="344.142" y="-231.5" font-family="sans" font-size="10.00">calculate_fidelity_based</text>
</g>
<!-- 13&#45;&gt;1 -->
<g id="edge13" class="edge"><title>13&#45;&gt;1</title>
<path fill="none" stroke="grey" stroke-width="2" d="M290.479,-215.913C270.154,-207.494 247.9,-195.708 231.142,-180 212.731,-162.743 199.595,-136.979 191.588,-117.606"/>
<polygon fill="grey" stroke="grey" stroke-width="2" points="194.781,-116.164 187.867,-108.136 188.266,-118.723 194.781,-116.164"/>
</g>
<!-- 13&#45;&gt;2 -->
<g id="edge14" class="edge"><title>13&#45;&gt;2</title>
<path fill="none" stroke="grey" stroke-width="2" d="M285.244,-215.958C268.017,-207.934 251.144,-196.395 241.142,-180 232.809,-166.341 232.68,-157.579 241.142,-144 249.649,-130.348 262.813,-120.114 277.06,-112.476"/>
<polygon fill="grey" stroke="grey" stroke-width="2" points="278.619,-115.61 286.04,-108.049 275.523,-109.332 278.619,-115.61"/>
</g>
<!-- 13&#45;&gt;5 -->
<g id="edge18" class="edge"><title>13&#45;&gt;5</title>
<path fill="none" stroke="grey" stroke-width="2" d="M309.46,-215.834C295.835,-207.127 281.674,-195.151 274.142,-180 267.019,-165.673 264.15,-156.496 274.142,-144 278.955,-137.98 356.166,-121.316 420.79,-108.264"/>
<polygon fill="grey" stroke="grey" stroke-width="2" points="421.518,-111.688 430.631,-106.284 420.137,-104.825 421.518,-111.688"/>
</g>
<!-- 13&#45;&gt;6 -->
<g id="edge19" class="edge"><title>13&#45;&gt;6</title>
<path fill="none" stroke="grey" stroke-width="2" d="M344.142,-215.697C344.142,-207.983 344.142,-198.712 344.142,-190.112"/>
<polygon fill="grey" stroke="grey" stroke-width="2" points="347.642,-190.104 344.142,-180.104 340.642,-190.104 347.642,-190.104"/>
</g>
<!-- 13&#45;&gt;7 -->
<g id="edge20" class="edge"><title>13&#45;&gt;7</title>
<path fill="none" stroke="grey" stroke-width="2" d="M383.772,-215.876C405.918,-206.307 433.704,-194.3 457.2,-184.148"/>
<polygon fill="grey" stroke="grey" stroke-width="2" points="458.85,-187.248 466.641,-180.068 456.073,-180.822 458.85,-187.248"/>
</g>
<!-- 13&#45;&gt;8 -->
<g id="edge21" class="edge"><title>13&#45;&gt;8</title>
<path fill="none" stroke="grey" stroke-width="2" d="M411.24,-219.503C464.078,-208.875 538.39,-193.927 597.309,-182.076"/>
<polygon fill="grey" stroke="grey" stroke-width="2" points="598.26,-185.455 607.373,-180.051 596.879,-178.592 598.26,-185.455"/>
</g>
<!-- 13&#45;&gt;11 -->
<g id="edge24" class="edge"><title>13&#45;&gt;11</title>
<path fill="none" stroke="grey" stroke-width="2" d="M411.428,-226.834C496.273,-218.635 646.786,-202.679 785.164,-180.081"/>
<polygon fill="grey" stroke="grey" stroke-width="2" points="785.807,-183.522 795.105,-178.442 784.669,-176.615 785.807,-183.522"/>
</g>
<!-- 13&#45;&gt;12 -->
<g id="edge25" class="edge"><title>13&#45;&gt;12</title>
<path fill="none" stroke="grey" stroke-width="2" d="M411.159,-228.982C520.689,-222 745.049,-205.968 944.808,-180.113"/>
<polygon fill="grey" stroke="grey" stroke-width="2" points="945.441,-183.56 954.903,-178.795 944.534,-176.619 945.441,-183.56"/>
</g>
<!-- 14 -->
<g id="node15" class="node"><title>14</title>
<path fill="none" stroke="#56d89a" stroke-width="2" d="M291.142,-396C291.142,-396 199.142,-396 199.142,-396 193.142,-396 187.142,-390 187.142,-384 187.142,-384 187.142,-372 187.142,-372 187.142,-366 193.142,-360 199.142,-360 199.142,-360 291.142,-360 291.142,-360 297.142,-360 303.142,-366 303.142,-372 303.142,-372 303.142,-384 303.142,-384 303.142,-390 297.142,-396 291.142,-396"/>
<text text-anchor="middle" x="245.142" y="-375.5" font-family="sans" font-size="10.00">fidelity_group_reads</text>
</g>
<!-- 14&#45;&gt;3 -->
<g id="edge15" class="edge"><title>14&#45;&gt;3</title>
<path fill="none" stroke="grey" stroke-width="2" d="M238.387,-359.871C228.759,-335.457 211,-290.426 199.646,-261.635"/>
<polygon fill="grey" stroke="grey" stroke-width="2" points="202.845,-260.208 195.921,-252.189 196.334,-262.776 202.845,-260.208"/>
</g>
<!-- 17 -->
<g id="node18" class="node"><title>17</title>
<path fill="none" stroke="#78d856" stroke-width="2" d="M324.142,-324C324.142,-324 262.142,-324 262.142,-324 256.142,-324 250.142,-318 250.142,-312 250.142,-312 250.142,-300 250.142,-300 250.142,-294 256.142,-288 262.142,-288 262.142,-288 324.142,-288 324.142,-288 330.142,-288 336.142,-294 336.142,-300 336.142,-300 336.142,-312 336.142,-312 336.142,-318 330.142,-324 324.142,-324"/>
<text text-anchor="middle" x="293.142" y="-303.5" font-family="sans" font-size="10.00">sort_by_name</text>
</g>
<!-- 14&#45;&gt;17 -->
<g id="edge31" class="edge"><title>14&#45;&gt;17</title>
<path fill="none" stroke="grey" stroke-width="2" d="M257.007,-359.697C262.645,-351.474 269.496,-341.483 275.711,-332.421"/>
<polygon fill="grey" stroke="grey" stroke-width="2" points="278.644,-334.331 281.413,-324.104 272.871,-330.372 278.644,-334.331"/>
</g>
<!-- 15 -->
<g id="node16" class="node"><title>15</title>
<path fill="none" stroke="#d8c356" stroke-width="2" d="M136.142,-612C136.142,-612 92.1419,-612 92.1419,-612 86.1419,-612 80.1419,-606 80.1419,-600 80.1419,-600 80.1419,-588 80.1419,-588 80.1419,-582 86.1419,-576 92.1419,-576 92.1419,-576 136.142,-576 136.142,-576 142.142,-576 148.142,-582 148.142,-588 148.142,-588 148.142,-600 148.142,-600 148.142,-606 142.142,-612 136.142,-612"/>
<text text-anchor="middle" x="114.142" y="-591.5" font-family="sans" font-size="10.00">sortMaped</text>
</g>
<!-- 15&#45;&gt;4 -->
<g id="edge16" class="edge"><title>15&#45;&gt;4</title>
<path fill="none" stroke="grey" stroke-width="2" d="M80.1307,-586.316C54.9045,-579.386 22.2144,-565.791 6.14186,-540 -5.80527,-520.829 2.71871,-495.741 12.7713,-477.09"/>
<polygon fill="grey" stroke="grey" stroke-width="2" points="15.9112,-478.653 17.9061,-468.247 9.85774,-475.138 15.9112,-478.653"/>
</g>
<!-- 16 -->
<g id="node17" class="node"><title>16</title>
<path fill="none" stroke="#5682d8" stroke-width="2" d="M201.142,-540C201.142,-540 27.1419,-540 27.1419,-540 21.1419,-540 15.1419,-534 15.1419,-528 15.1419,-528 15.1419,-516 15.1419,-516 15.1419,-510 21.1419,-504 27.1419,-504 27.1419,-504 201.142,-504 201.142,-504 207.142,-504 213.142,-510 213.142,-516 213.142,-516 213.142,-528 213.142,-528 213.142,-534 207.142,-540 201.142,-540"/>
<text text-anchor="middle" x="114.142" y="-525" font-family="sans" font-size="10.00">indexing</text>
<text text-anchor="middle" x="114.142" y="-514" font-family="sans" font-size="10.00">stem: ALIGNED/2_duplicated_subSort</text>
</g>
<!-- 15&#45;&gt;16 -->
<g id="edge30" class="edge"><title>15&#45;&gt;16</title>
<path fill="none" stroke="grey" stroke-width="2" d="M114.142,-575.697C114.142,-567.983 114.142,-558.712 114.142,-550.112"/>
<polygon fill="grey" stroke="grey" stroke-width="2" points="117.642,-550.104 114.142,-540.104 110.642,-550.104 117.642,-550.104"/>
</g>
<!-- 18 -->
<g id="node19" class="node"><title>18</title>
<path fill="none" stroke="#d8d356" stroke-width="2" d="M284.642,-540C284.642,-540 243.642,-540 243.642,-540 237.642,-540 231.642,-534 231.642,-528 231.642,-528 231.642,-516 231.642,-516 231.642,-510 237.642,-504 243.642,-504 243.642,-504 284.642,-504 284.642,-504 290.642,-504 296.642,-510 296.642,-516 296.642,-516 296.642,-528 296.642,-528 296.642,-534 290.642,-540 284.642,-540"/>
<text text-anchor="middle" x="264.142" y="-519.5" font-family="sans" font-size="10.00">fix_mates</text>
</g>
<!-- 15&#45;&gt;18 -->
<g id="edge32" class="edge"><title>15&#45;&gt;18</title>
<path fill="none" stroke="grey" stroke-width="2" d="M148.179,-577.116C170.135,-566.87 198.846,-553.471 222.207,-542.57"/>
<polygon fill="grey" stroke="grey" stroke-width="2" points="223.944,-545.621 231.526,-538.221 220.984,-539.278 223.944,-545.621"/>
</g>
<!-- 16&#45;&gt;4 -->
<g id="edge17" class="edge"><title>16&#45;&gt;4</title>
<path fill="none" stroke="grey" stroke-width="2" d="M93.3778,-503.697C82.9005,-494.965 70.0304,-484.24 58.6422,-474.75"/>
<polygon fill="grey" stroke="grey" stroke-width="2" points="60.59,-471.817 50.6671,-468.104 56.1086,-477.195 60.59,-471.817"/>
</g>
<!-- 17&#45;&gt;13 -->
<g id="edge26" class="edge"><title>17&#45;&gt;13</title>
<path fill="none" stroke="grey" stroke-width="2" d="M305.749,-287.697C311.739,-279.474 319.018,-269.483 325.621,-260.421"/>
<polygon fill="grey" stroke="grey" stroke-width="2" points="328.62,-262.248 331.68,-252.104 322.963,-258.126 328.62,-262.248"/>
</g>
<!-- 18&#45;&gt;14 -->
<g id="edge27" class="edge"><title>18&#45;&gt;14</title>
<path fill="none" stroke="grey" stroke-width="2" d="M231.451,-506.196C216.25,-497.436 199.677,-484.744 191.142,-468 183.876,-453.745 184.95,-446.753 191.142,-432 195.781,-420.945 203.976,-411.037 212.602,-402.862"/>
<polygon fill="grey" stroke="grey" stroke-width="2" points="215.035,-405.382 220.214,-396.139 210.401,-400.136 215.035,-405.382"/>
</g>
<!-- 19 -->
<g id="node20" class="node"><title>19</title>
<path fill="none" stroke="#5682d8" stroke-width="2" d="M363.642,-468C363.642,-468 212.642,-468 212.642,-468 206.642,-468 200.642,-462 200.642,-456 200.642,-456 200.642,-444 200.642,-444 200.642,-438 206.642,-432 212.642,-432 212.642,-432 363.642,-432 363.642,-432 369.642,-432 375.642,-438 375.642,-444 375.642,-444 375.642,-456 375.642,-456 375.642,-462 369.642,-468 363.642,-468"/>
<text text-anchor="middle" x="288.142" y="-453" font-family="sans" font-size="10.00">indexing</text>
<text text-anchor="middle" x="288.142" y="-442" font-family="sans" font-size="10.00">stem: 2_duplicated_fixed_mates</text>
</g>
<!-- 18&#45;&gt;19 -->
<g id="edge33" class="edge"><title>18&#45;&gt;19</title>
<path fill="none" stroke="grey" stroke-width="2" d="M270.074,-503.697C272.748,-495.898 275.968,-486.509 278.943,-477.829"/>
<polygon fill="grey" stroke="grey" stroke-width="2" points="282.345,-478.699 282.278,-468.104 275.723,-476.429 282.345,-478.699"/>
</g>
<!-- 19&#45;&gt;14 -->
<g id="edge28" class="edge"><title>19&#45;&gt;14</title>
<path fill="none" stroke="grey" stroke-width="2" d="M277.513,-431.697C272.514,-423.559 266.451,-413.689 260.93,-404.701"/>
<polygon fill="grey" stroke="grey" stroke-width="2" points="263.865,-402.793 255.649,-396.104 257.901,-406.457 263.865,-402.793"/>
</g>
<!-- 20 -->
<g id="node21" class="node"><title>20</title>
<path fill="none" stroke="#56d863" stroke-width="2" d="M147.142,-684C147.142,-684 81.1419,-684 81.1419,-684 75.1419,-684 69.1419,-678 69.1419,-672 69.1419,-672 69.1419,-660 69.1419,-660 69.1419,-654 75.1419,-648 81.1419,-648 81.1419,-648 147.142,-648 147.142,-648 153.142,-648 159.142,-654 159.142,-660 159.142,-660 159.142,-672 159.142,-672 159.142,-678 153.142,-684 147.142,-684"/>
<text text-anchor="middle" x="114.142" y="-663.5" font-family="sans" font-size="10.00">pair_align_bwa</text>
</g>
<!-- 20&#45;&gt;15 -->
<g id="edge29" class="edge"><title>20&#45;&gt;15</title>
<path fill="none" stroke="grey" stroke-width="2" d="M114.142,-647.697C114.142,-639.983 114.142,-630.712 114.142,-622.112"/>
<polygon fill="grey" stroke="grey" stroke-width="2" points="117.642,-622.104 114.142,-612.104 110.642,-622.104 117.642,-622.104"/>
</g>
<!-- 21 -->
<g id="node22" class="node"><title>21</title>
<path fill="none" stroke="#d89c56" stroke-width="2" d="M158.642,-756C158.642,-756 69.6419,-756 69.6419,-756 63.6419,-756 57.6419,-750 57.6419,-744 57.6419,-744 57.6419,-732 57.6419,-732 57.6419,-726 63.6419,-720 69.6419,-720 69.6419,-720 158.642,-720 158.642,-720 164.642,-720 170.642,-726 170.642,-732 170.642,-732 170.642,-744 170.642,-744 170.642,-750 164.642,-756 158.642,-756"/>
<text text-anchor="middle" x="114.142" y="-735.5" font-family="sans" font-size="10.00">trim_adapters_pe_2</text>
</g>
<!-- 21&#45;&gt;20 -->
<g id="edge34" class="edge"><title>21&#45;&gt;20</title>
<path fill="none" stroke="grey" stroke-width="2" d="M114.142,-719.697C114.142,-711.983 114.142,-702.712 114.142,-694.112"/>
<polygon fill="grey" stroke="grey" stroke-width="2" points="117.642,-694.104 114.142,-684.104 110.642,-694.104 117.642,-694.104"/>
</g>
<!-- 22 -->
<g id="node23" class="node"><title>22</title>
<path fill="none" stroke="#d87556" stroke-width="2" d="M139.642,-828C139.642,-828 88.6419,-828 88.6419,-828 82.6419,-828 76.6419,-822 76.6419,-816 76.6419,-816 76.6419,-804 76.6419,-804 76.6419,-798 82.6419,-792 88.6419,-792 88.6419,-792 139.642,-792 139.642,-792 145.642,-792 151.642,-798 151.642,-804 151.642,-804 151.642,-816 151.642,-816 151.642,-822 145.642,-828 139.642,-828"/>
<text text-anchor="middle" x="114.142" y="-807.5" font-family="sans" font-size="10.00">extract_umi</text>
</g>
<!-- 22&#45;&gt;21 -->
<g id="edge35" class="edge"><title>22&#45;&gt;21</title>
<path fill="none" stroke="grey" stroke-width="2" d="M114.142,-791.697C114.142,-783.983 114.142,-774.712 114.142,-766.112"/>
<polygon fill="grey" stroke="grey" stroke-width="2" points="117.642,-766.104 114.142,-756.104 110.642,-766.104 117.642,-766.104"/>
</g>
<!-- 23 -->
<g id="node24" class="node"><title>23</title>
<path fill="none" stroke="#61d856" stroke-width="2" d="M93.1419,-900C93.1419,-900 49.1419,-900 49.1419,-900 43.1419,-900 37.1419,-894 37.1419,-888 37.1419,-888 37.1419,-876 37.1419,-876 37.1419,-870 43.1419,-864 49.1419,-864 49.1419,-864 93.1419,-864 93.1419,-864 99.1419,-864 105.142,-870 105.142,-876 105.142,-876 105.142,-888 105.142,-888 105.142,-894 99.1419,-900 93.1419,-900"/>
<text text-anchor="middle" x="71.1419" y="-879.5" font-family="sans" font-size="10.00">get_fastq1</text>
</g>
<!-- 23&#45;&gt;22 -->
<g id="edge36" class="edge"><title>23&#45;&gt;22</title>
<path fill="none" stroke="grey" stroke-width="2" d="M81.7711,-863.697C86.77,-855.559 92.8329,-845.689 98.3539,-836.701"/>
<polygon fill="grey" stroke="grey" stroke-width="2" points="101.383,-838.457 103.635,-828.104 95.4184,-834.793 101.383,-838.457"/>
</g>
<!-- 24 -->
<g id="node25" class="node"><title>24</title>
<path fill="none" stroke="#bed856" stroke-width="2" d="M179.142,-900C179.142,-900 135.142,-900 135.142,-900 129.142,-900 123.142,-894 123.142,-888 123.142,-888 123.142,-876 123.142,-876 123.142,-870 129.142,-864 135.142,-864 135.142,-864 179.142,-864 179.142,-864 185.142,-864 191.142,-870 191.142,-876 191.142,-876 191.142,-888 191.142,-888 191.142,-894 185.142,-900 179.142,-900"/>
<text text-anchor="middle" x="157.142" y="-879.5" font-family="sans" font-size="10.00">get_fastq2</text>
</g>
<!-- 24&#45;&gt;22 -->
<g id="edge37" class="edge"><title>24&#45;&gt;22</title>
<path fill="none" stroke="grey" stroke-width="2" d="M146.513,-863.697C141.514,-855.559 135.451,-845.689 129.93,-836.701"/>
<polygon fill="grey" stroke="grey" stroke-width="2" points="132.865,-834.793 124.649,-828.104 126.901,-838.457 132.865,-834.793"/>
</g>
<!-- 25 -->
<g id="node26" class="node"><title>25</title>
<path fill="none" stroke="#d86e56" stroke-width="2" d="M193.142,-972C193.142,-972 35.1419,-972 35.1419,-972 29.1419,-972 23.1419,-966 23.1419,-960 23.1419,-960 23.1419,-948 23.1419,-948 23.1419,-942 29.1419,-936 35.1419,-936 35.1419,-936 193.142,-936 193.142,-936 199.142,-936 205.142,-942 205.142,-948 205.142,-948 205.142,-960 205.142,-960 205.142,-966 199.142,-972 193.142,-972"/>
<text text-anchor="middle" x="114.142" y="-957" font-family="sans" font-size="10.00">generate_script_for_merging_files</text>
<text text-anchor="middle" x="114.142" y="-946" font-family="sans" font-size="10.00">stem: 2_duplicated</text>
</g>
<!-- 25&#45;&gt;23 -->
<g id="edge38" class="edge"><title>25&#45;&gt;23</title>
<path fill="none" stroke="grey" stroke-width="2" d="M103.513,-935.697C98.5137,-927.559 92.4508,-917.689 86.9298,-908.701"/>
<polygon fill="grey" stroke="grey" stroke-width="2" points="89.8653,-906.793 81.6488,-900.104 83.9008,-910.457 89.8653,-906.793"/>
</g>
<!-- 25&#45;&gt;24 -->
<g id="edge39" class="edge"><title>25&#45;&gt;24</title>
<path fill="none" stroke="grey" stroke-width="2" d="M124.771,-935.697C129.77,-927.559 135.833,-917.689 141.354,-908.701"/>
<polygon fill="grey" stroke="grey" stroke-width="2" points="144.383,-910.457 146.635,-900.104 138.418,-906.793 144.383,-910.457"/>
</g>
</g>
</svg>
