<?xml version="1.0" encoding="UTF-8" standalone="no"?>
<!DOCTYPE svg PUBLIC "-//W3C//DTD SVG 1.1//EN"
 "http://www.w3.org/Graphics/SVG/1.1/DTD/svg11.dtd">
<!-- Generated by graphviz version 2.38.0 (20140413.2041)
 -->
<!-- Title: snakemake_dag Pages: 1 -->
<svg width="1838pt" height="764pt"
 viewBox="0.00 0.00 1837.50 764.00" xmlns="http://www.w3.org/2000/svg" xmlns:xlink="http://www.w3.org/1999/xlink">
<g id="graph0" class="graph" transform="scale(1 1) rotate(0) translate(4 760)">
<title>snakemake_dag</title>
<polygon fill="white" stroke="none" points="-4,4 -4,-760 1833.5,-760 1833.5,4 -4,4"/>
<!-- 0 -->
<g id="node1" class="node"><title>0</title>
<path fill="none" stroke="#56d86b" stroke-width="2" d="M965,-36C965,-36 915,-36 915,-36 909,-36 903,-30 903,-24 903,-24 903,-12 903,-12 903,-6 909,-0 915,-0 915,-0 965,-0 965,-0 971,-0 977,-6 977,-12 977,-12 977,-24 977,-24 977,-30 971,-36 965,-36"/>
<text text-anchor="middle" x="940" y="-15.5" font-family="sans" font-size="10.00">umi_fidelity</text>
</g>
<!-- 1 -->
<g id="node2" class="node"><title>1</title>
<path fill="none" stroke="#d85e56" stroke-width="2" d="M434.5,-108C434.5,-108 287.5,-108 287.5,-108 281.5,-108 275.5,-102 275.5,-96 275.5,-96 275.5,-84 275.5,-84 275.5,-78 281.5,-72 287.5,-72 287.5,-72 434.5,-72 434.5,-72 440.5,-72 446.5,-78 446.5,-84 446.5,-84 446.5,-96 446.5,-96 446.5,-102 440.5,-108 434.5,-108"/>
<text text-anchor="middle" x="361" y="-87.5" font-family="sans" font-size="10.00">plot_frequencies_fidelity_based</text>
</g>
<!-- 1&#45;&gt;0 -->
<g id="edge1" class="edge"><title>1&#45;&gt;0</title>
<path fill="none" stroke="grey" stroke-width="2" d="M446.516,-73.272C449.376,-72.8298 452.21,-72.4042 455,-72 614.898,-48.8336 805.776,-30.7655 892.696,-23.0596"/>
<polygon fill="grey" stroke="grey" stroke-width="2" points="893.117,-26.5361 902.772,-22.1716 892.503,-19.5632 893.117,-26.5361"/>
</g>
<!-- 2 -->
<g id="node3" class="node"><title>2</title>
<path fill="none" stroke="#d85e56" stroke-width="2" d="M1429.5,-108C1429.5,-108 1282.5,-108 1282.5,-108 1276.5,-108 1270.5,-102 1270.5,-96 1270.5,-96 1270.5,-84 1270.5,-84 1270.5,-78 1276.5,-72 1282.5,-72 1282.5,-72 1429.5,-72 1429.5,-72 1435.5,-72 1441.5,-78 1441.5,-84 1441.5,-84 1441.5,-96 1441.5,-96 1441.5,-102 1435.5,-108 1429.5,-108"/>
<text text-anchor="middle" x="1356" y="-87.5" font-family="sans" font-size="10.00">plot_frequencies_fidelity_based</text>
</g>
<!-- 2&#45;&gt;0 -->
<g id="edge2" class="edge"><title>2&#45;&gt;0</title>
<path fill="none" stroke="grey" stroke-width="2" d="M1270.3,-73.6104C1267.16,-73.0638 1264.05,-72.5255 1261,-72 1163.71,-55.2645 1049.65,-36.6776 987.061,-26.5671"/>
<polygon fill="grey" stroke="grey" stroke-width="2" points="987.528,-23.0973 977.098,-24.9592 986.413,-30.0079 987.528,-23.0973"/>
</g>
<!-- 3 -->
<g id="node4" class="node"><title>3</title>
<path fill="none" stroke="#d6d856" stroke-width="2" d="M245,-108C245,-108 143,-108 143,-108 137,-108 131,-102 131,-96 131,-96 131,-84 131,-84 131,-78 137,-72 143,-72 143,-72 245,-72 245,-72 251,-72 257,-78 257,-84 257,-84 257,-96 257,-96 257,-102 251,-108 245,-108"/>
<text text-anchor="middle" x="194" y="-87.5" font-family="sans" font-size="10.00">umi_size_distributions</text>
</g>
<!-- 3&#45;&gt;0 -->
<g id="edge3" class="edge"><title>3&#45;&gt;0</title>
<path fill="none" stroke="grey" stroke-width="2" d="M257.108,-73.5216C260.106,-72.9683 263.081,-72.4565 266,-72 499.388,-35.4919 782.382,-23.6296 892.738,-20.2259"/>
<polygon fill="grey" stroke="grey" stroke-width="2" points="892.981,-23.7203 902.872,-19.9223 892.771,-16.7234 892.981,-23.7203"/>
</g>
<!-- 4 -->
<g id="node5" class="node"><title>4</title>
<path fill="none" stroke="#d6d856" stroke-width="2" d="M1240,-108C1240,-108 1138,-108 1138,-108 1132,-108 1126,-102 1126,-96 1126,-96 1126,-84 1126,-84 1126,-78 1132,-72 1138,-72 1138,-72 1240,-72 1240,-72 1246,-72 1252,-78 1252,-84 1252,-84 1252,-96 1252,-96 1252,-102 1246,-108 1240,-108"/>
<text text-anchor="middle" x="1189" y="-87.5" font-family="sans" font-size="10.00">umi_size_distributions</text>
</g>
<!-- 4&#45;&gt;0 -->
<g id="edge4" class="edge"><title>4&#45;&gt;0</title>
<path fill="none" stroke="grey" stroke-width="2" d="M1128.41,-71.9656C1084.88,-59.7287 1027.05,-43.4721 986.996,-32.2117"/>
<polygon fill="grey" stroke="grey" stroke-width="2" points="987.789,-28.799 977.215,-29.462 985.894,-35.5378 987.789,-28.799"/>
</g>
<!-- 5 -->
<g id="node6" class="node"><title>5</title>
<path fill="none" stroke="#56c9d8" stroke-width="2" d="M1402.5,-252C1402.5,-252 1367.5,-252 1367.5,-252 1361.5,-252 1355.5,-246 1355.5,-240 1355.5,-240 1355.5,-228 1355.5,-228 1355.5,-222 1361.5,-216 1367.5,-216 1367.5,-216 1402.5,-216 1402.5,-216 1408.5,-216 1414.5,-222 1414.5,-228 1414.5,-228 1414.5,-240 1414.5,-240 1414.5,-246 1408.5,-252 1402.5,-252"/>
<text text-anchor="middle" x="1385" y="-231.5" font-family="sans" font-size="10.00">flagstat2</text>
</g>
<!-- 5&#45;&gt;0 -->
<g id="edge5" class="edge"><title>5&#45;&gt;0</title>
<path fill="none" stroke="grey" stroke-width="2" d="M1402.42,-215.904C1432.81,-184.056 1488.75,-114.987 1450,-72 1419.3,-37.9495 1107.79,-24.3806 987.259,-20.379"/>
<polygon fill="grey" stroke="grey" stroke-width="2" points="987.328,-16.8795 977.219,-20.0532 987.1,-23.8758 987.328,-16.8795"/>
</g>
<!-- 6 -->
<g id="node7" class="node"><title>6</title>
<path fill="none" stroke="#56c9d8" stroke-width="2" d="M1505.5,-252C1505.5,-252 1470.5,-252 1470.5,-252 1464.5,-252 1458.5,-246 1458.5,-240 1458.5,-240 1458.5,-228 1458.5,-228 1458.5,-222 1464.5,-216 1470.5,-216 1470.5,-216 1505.5,-216 1505.5,-216 1511.5,-216 1517.5,-222 1517.5,-228 1517.5,-228 1517.5,-240 1517.5,-240 1517.5,-246 1511.5,-252 1505.5,-252"/>
<text text-anchor="middle" x="1488" y="-231.5" font-family="sans" font-size="10.00">flagstat2</text>
</g>
<!-- 6&#45;&gt;0 -->
<g id="edge6" class="edge"><title>6&#45;&gt;0</title>
<path fill="none" stroke="grey" stroke-width="2" d="M1492.35,-215.754C1499.54,-182.707 1509.57,-110.347 1471,-72 1437.05,-38.2404 1111.67,-24.4432 987.672,-20.3826"/>
<polygon fill="grey" stroke="grey" stroke-width="2" points="987.462,-16.8742 977.355,-20.0521 987.238,-23.8706 987.462,-16.8742"/>
</g>
<!-- 7 -->
<g id="node8" class="node"><title>7</title>
<path fill="none" stroke="#d8bc56" stroke-width="2" d="M163.5,-324C163.5,-324 128.5,-324 128.5,-324 122.5,-324 116.5,-318 116.5,-312 116.5,-312 116.5,-300 116.5,-300 116.5,-294 122.5,-288 128.5,-288 128.5,-288 163.5,-288 163.5,-288 169.5,-288 175.5,-294 175.5,-300 175.5,-300 175.5,-312 175.5,-312 175.5,-318 169.5,-324 163.5,-324"/>
<text text-anchor="middle" x="146" y="-303.5" font-family="sans" font-size="10.00">flagstat1</text>
</g>
<!-- 7&#45;&gt;0 -->
<g id="edge7" class="edge"><title>7&#45;&gt;0</title>
<path fill="none" stroke="grey" stroke-width="2" d="M136.572,-287.872C114.433,-245.096 65.1292,-132.675 122,-72 148.498,-43.7299 722.076,-25.1983 892.598,-20.2989"/>
<polygon fill="grey" stroke="grey" stroke-width="2" points="892.874,-23.7925 902.77,-20.0091 892.675,-16.7954 892.874,-23.7925"/>
</g>
<!-- 8 -->
<g id="node9" class="node"><title>8</title>
<path fill="none" stroke="#d8bc56" stroke-width="2" d="M1563.5,-324C1563.5,-324 1528.5,-324 1528.5,-324 1522.5,-324 1516.5,-318 1516.5,-312 1516.5,-312 1516.5,-300 1516.5,-300 1516.5,-294 1522.5,-288 1528.5,-288 1528.5,-288 1563.5,-288 1563.5,-288 1569.5,-288 1575.5,-294 1575.5,-300 1575.5,-300 1575.5,-312 1575.5,-312 1575.5,-318 1569.5,-324 1563.5,-324"/>
<text text-anchor="middle" x="1546" y="-303.5" font-family="sans" font-size="10.00">flagstat1</text>
</g>
<!-- 8&#45;&gt;0 -->
<g id="edge8" class="edge"><title>8&#45;&gt;0</title>
<path fill="none" stroke="grey" stroke-width="2" d="M1548.41,-287.899C1553.5,-244.183 1560.09,-127.868 1496,-72 1458.01,-38.8821 1115.01,-24.5999 987.476,-20.4023"/>
<polygon fill="grey" stroke="grey" stroke-width="2" points="987.35,-16.8966 977.242,-20.0721 987.124,-23.8929 987.35,-16.8966"/>
</g>
<!-- 9 -->
<g id="node10" class="node"><title>9</title>
<path fill="none" stroke="#d88d56" stroke-width="2" d="M609.5,-108C609.5,-108 476.5,-108 476.5,-108 470.5,-108 464.5,-102 464.5,-96 464.5,-96 464.5,-84 464.5,-84 464.5,-78 470.5,-72 476.5,-72 476.5,-72 609.5,-72 609.5,-72 615.5,-72 621.5,-78 621.5,-84 621.5,-84 621.5,-96 621.5,-96 621.5,-102 615.5,-108 609.5,-108"/>
<text text-anchor="middle" x="543" y="-87.5" font-family="sans" font-size="10.00">umi_error_distributions_read</text>
</g>
<!-- 9&#45;&gt;0 -->
<g id="edge9" class="edge"><title>9&#45;&gt;0</title>
<path fill="none" stroke="grey" stroke-width="2" d="M621.637,-74.5787C626.497,-73.702 631.314,-72.8367 636,-72 726.737,-55.7975 832.818,-37.4349 892.637,-27.1338"/>
<polygon fill="grey" stroke="grey" stroke-width="2" points="893.281,-30.5745 902.542,-25.4289 892.093,-23.6759 893.281,-30.5745"/>
</g>
<!-- 10 -->
<g id="node11" class="node"><title>10</title>
<path fill="none" stroke="#d88d56" stroke-width="2" d="M1353.5,-180C1353.5,-180 1220.5,-180 1220.5,-180 1214.5,-180 1208.5,-174 1208.5,-168 1208.5,-168 1208.5,-156 1208.5,-156 1208.5,-150 1214.5,-144 1220.5,-144 1220.5,-144 1353.5,-144 1353.5,-144 1359.5,-144 1365.5,-150 1365.5,-156 1365.5,-156 1365.5,-168 1365.5,-168 1365.5,-174 1359.5,-180 1353.5,-180"/>
<text text-anchor="middle" x="1287" y="-159.5" font-family="sans" font-size="10.00">umi_error_distributions_read</text>
</g>
<!-- 10&#45;&gt;0 -->
<g id="edge10" class="edge"><title>10&#45;&gt;0</title>
<path fill="none" stroke="grey" stroke-width="2" d="M1219.44,-143.943C1187.7,-134.923 1149.73,-122.666 1117,-108 1088.62,-95.2819 1084.54,-86.44 1057,-72 1034.2,-60.0491 1008.18,-48.101 986.474,-38.5825"/>
<polygon fill="grey" stroke="grey" stroke-width="2" points="987.712,-35.304 977.146,-34.5243 984.919,-41.7229 987.712,-35.304"/>
</g>
<!-- 11 -->
<g id="node12" class="node"><title>11</title>
<path fill="none" stroke="#569ad8" stroke-width="2" d="M1178,-180C1178,-180 1080,-180 1080,-180 1074,-180 1068,-174 1068,-168 1068,-168 1068,-156 1068,-156 1068,-150 1074,-144 1080,-144 1080,-144 1178,-144 1178,-144 1184,-144 1190,-150 1190,-156 1190,-156 1190,-168 1190,-168 1190,-174 1184,-180 1178,-180"/>
<text text-anchor="middle" x="1129" y="-159.5" font-family="sans" font-size="10.00">merge_fidelity_based</text>
</g>
<!-- 11&#45;&gt;0 -->
<g id="edge11" class="edge"><title>11&#45;&gt;0</title>
<path fill="none" stroke="grey" stroke-width="2" d="M1109.38,-143.986C1087.92,-125.606 1052.26,-95.7637 1020,-72 1005.78,-61.5256 989.622,-50.6386 975.566,-41.4765"/>
<polygon fill="grey" stroke="grey" stroke-width="2" points="977.42,-38.5072 967.123,-36.0138 973.618,-44.3844 977.42,-38.5072"/>
</g>
<!-- 12 -->
<g id="node13" class="node"><title>12</title>
<path fill="none" stroke="#a7d856" stroke-width="2" d="M495.5,-180C495.5,-180 354.5,-180 354.5,-180 348.5,-180 342.5,-174 342.5,-168 342.5,-168 342.5,-156 342.5,-156 342.5,-150 348.5,-144 354.5,-144 354.5,-144 495.5,-144 495.5,-144 501.5,-144 507.5,-150 507.5,-156 507.5,-156 507.5,-168 507.5,-168 507.5,-174 501.5,-180 495.5,-180"/>
<text text-anchor="middle" x="425" y="-159.5" font-family="sans" font-size="10.00">merge_fidelity_transitversions</text>
</g>
<!-- 12&#45;&gt;0 -->
<g id="edge12" class="edge"><title>12&#45;&gt;0</title>
<path fill="none" stroke="grey" stroke-width="2" d="M504.759,-143.991C552.426,-133.129 607.891,-119.061 630,-108 652.906,-96.5407 651.784,-82.8182 675,-72 746.315,-38.7681 837.909,-26.3315 892.614,-21.7058"/>
<polygon fill="grey" stroke="grey" stroke-width="2" points="893.024,-25.1844 902.716,-20.9053 892.471,-18.2063 893.024,-25.1844"/>
</g>
<!-- 13 -->
<g id="node14" class="node"><title>13</title>
<path fill="none" stroke="#d87556" stroke-width="2" d="M684,-180C684,-180 538,-180 538,-180 532,-180 526,-174 526,-168 526,-168 526,-156 526,-156 526,-150 532,-144 538,-144 538,-144 684,-144 684,-144 690,-144 696,-150 696,-156 696,-156 696,-168 696,-168 696,-174 690,-180 684,-180"/>
<text text-anchor="middle" x="611" y="-159.5" font-family="sans" font-size="10.00">merge_fidelity_transvers_types</text>
</g>
<!-- 13&#45;&gt;0 -->
<g id="edge13" class="edge"><title>13&#45;&gt;0</title>
<path fill="none" stroke="grey" stroke-width="2" d="M630.361,-143.744C653.792,-123.723 695.199,-91.0322 736,-72 787.009,-48.2062 850.369,-33.8714 892.822,-26.2186"/>
<polygon fill="grey" stroke="grey" stroke-width="2" points="893.63,-29.6305 902.878,-24.4604 892.425,-22.7351 893.63,-29.6305"/>
</g>
<!-- 14 -->
<g id="node15" class="node"><title>14</title>
<path fill="none" stroke="#56d8b1" stroke-width="2" d="M856,-108C856,-108 766,-108 766,-108 760,-108 754,-102 754,-96 754,-96 754,-84 754,-84 754,-78 760,-72 766,-72 766,-72 856,-72 856,-72 862,-72 868,-78 868,-84 868,-84 868,-96 868,-96 868,-102 862,-108 856,-108"/>
<text text-anchor="middle" x="811" y="-87.5" font-family="sans" font-size="10.00">plot_cumulative_err</text>
</g>
<!-- 14&#45;&gt;0 -->
<g id="edge14" class="edge"><title>14&#45;&gt;0</title>
<path fill="none" stroke="grey" stroke-width="2" d="M842.557,-71.8761C859.658,-62.5965 880.982,-51.0251 899.319,-41.0752"/>
<polygon fill="grey" stroke="grey" stroke-width="2" points="901.202,-44.0355 908.322,-36.1898 897.863,-37.8829 901.202,-44.0355"/>
</g>
<!-- 15 -->
<g id="node16" class="node"><title>15</title>
<path fill="none" stroke="#56b9d8" stroke-width="2" d="M982,-108C982,-108 898,-108 898,-108 892,-108 886,-102 886,-96 886,-96 886,-84 886,-84 886,-78 892,-72 898,-72 898,-72 982,-72 982,-72 988,-72 994,-78 994,-84 994,-84 994,-96 994,-96 994,-102 988,-108 982,-108"/>
<text text-anchor="middle" x="940" y="-87.5" font-family="sans" font-size="10.00">plot_scatter_errors</text>
</g>
<!-- 15&#45;&gt;0 -->
<g id="edge15" class="edge"><title>15&#45;&gt;0</title>
<path fill="none" stroke="grey" stroke-width="2" d="M940,-71.6966C940,-63.9827 940,-54.7125 940,-46.1124"/>
<polygon fill="grey" stroke="grey" stroke-width="2" points="943.5,-46.1043 940,-36.1043 936.5,-46.1044 943.5,-46.1043"/>
</g>
<!-- 16 -->
<g id="node17" class="node"><title>16</title>
<path fill="none" stroke="#c6d856" stroke-width="2" d="M1038,-180C1038,-180 920,-180 920,-180 914,-180 908,-174 908,-168 908,-168 908,-156 908,-156 908,-150 914,-144 920,-144 920,-144 1038,-144 1038,-144 1044,-144 1050,-150 1050,-156 1050,-156 1050,-168 1050,-168 1050,-174 1044,-180 1038,-180"/>
<text text-anchor="middle" x="979" y="-159.5" font-family="sans" font-size="10.00">merge_fidelity_mutations</text>
</g>
<!-- 16&#45;&gt;0 -->
<g id="edge16" class="edge"><title>16&#45;&gt;0</title>
<path fill="none" stroke="grey" stroke-width="2" d="M990.363,-143.997C1001.11,-125.627 1014.08,-95.7935 1003,-72 997.574,-60.344 988.182,-50.3356 978.282,-42.256"/>
<polygon fill="grey" stroke="grey" stroke-width="2" points="980.381,-39.4548 970.3,-36.1953 976.148,-45.0299 980.381,-39.4548"/>
</g>
<!-- 17 -->
<g id="node18" class="node"><title>17</title>
<path fill="none" stroke="#d88556" stroke-width="2" d="M878,-180C878,-180 726,-180 726,-180 720,-180 714,-174 714,-168 714,-168 714,-156 714,-156 714,-150 720,-144 726,-144 726,-144 878,-144 878,-144 884,-144 890,-150 890,-156 890,-156 890,-168 890,-168 890,-174 884,-180 878,-180"/>
<text text-anchor="middle" x="802" y="-159.5" font-family="sans" font-size="10.00">merge_fidelity_single_mutations</text>
</g>
<!-- 17&#45;&gt;0 -->
<g id="edge17" class="edge"><title>17&#45;&gt;0</title>
<path fill="none" stroke="grey" stroke-width="2" d="M777.706,-143.704C754.911,-125.345 726.836,-95.7604 745,-72 762.878,-48.6146 841.109,-33.114 892.887,-25.2097"/>
<polygon fill="grey" stroke="grey" stroke-width="2" points="893.485,-28.6593 902.864,-23.7301 892.458,-21.735 893.485,-28.6593"/>
</g>
<!-- 17&#45;&gt;14 -->
<g id="edge36" class="edge"><title>17&#45;&gt;14</title>
<path fill="none" stroke="grey" stroke-width="2" d="M804.225,-143.697C805.217,-135.983 806.408,-126.712 807.514,-118.112"/>
<polygon fill="grey" stroke="grey" stroke-width="2" points="810.997,-118.469 808.801,-108.104 804.054,-117.576 810.997,-118.469"/>
</g>
<!-- 17&#45;&gt;15 -->
<g id="edge37" class="edge"><title>17&#45;&gt;15</title>
<path fill="none" stroke="grey" stroke-width="2" d="M835.759,-143.876C854.22,-134.512 877.282,-122.814 897.017,-112.803"/>
<polygon fill="grey" stroke="grey" stroke-width="2" points="898.777,-115.835 906.112,-108.19 895.61,-109.592 898.777,-115.835"/>
</g>
<!-- 18 -->
<g id="node19" class="node"><title>18</title>
<path fill="none" stroke="#78d856" stroke-width="2" d="M573,-252C573,-252 463,-252 463,-252 457,-252 451,-246 451,-240 451,-240 451,-228 451,-228 451,-222 457,-216 463,-216 463,-216 573,-216 573,-216 579,-216 585,-222 585,-228 585,-228 585,-240 585,-240 585,-246 579,-252 573,-252"/>
<text text-anchor="middle" x="518" y="-231.5" font-family="sans" font-size="10.00">calculate_fidelity_based</text>
</g>
<!-- 18&#45;&gt;1 -->
<g id="edge18" class="edge"><title>18&#45;&gt;1</title>
<path fill="none" stroke="grey" stroke-width="2" d="M450.911,-223.767C400.296,-215.265 336.944,-200.801 321,-180 306.121,-160.589 320.747,-134.765 336.33,-115.936"/>
<polygon fill="grey" stroke="grey" stroke-width="2" points="339.032,-118.163 342.984,-108.333 333.765,-113.553 339.032,-118.163"/>
</g>
<!-- 18&#45;&gt;3 -->
<g id="edge20" class="edge"><title>18&#45;&gt;3</title>
<path fill="none" stroke="grey" stroke-width="2" d="M450.851,-222.839C409.147,-214.847 355.25,-201.401 311,-180 276.267,-163.201 241.755,-135.206 219.315,-115.097"/>
<polygon fill="grey" stroke="grey" stroke-width="2" points="221.65,-112.49 211.901,-108.344 216.937,-117.665 221.65,-112.49"/>
</g>
<!-- 18&#45;&gt;9 -->
<g id="edge28" class="edge"><title>18&#45;&gt;9</title>
<path fill="none" stroke="grey" stroke-width="2" d="M450.791,-224.844C384.16,-213.955 296.86,-190.394 333,-144 337.074,-138.771 400.394,-123.218 456.445,-110.303"/>
<polygon fill="grey" stroke="grey" stroke-width="2" points="457.484,-113.655 466.448,-108.008 455.919,-106.833 457.484,-113.655"/>
</g>
<!-- 18&#45;&gt;11 -->
<g id="edge30" class="edge"><title>18&#45;&gt;11</title>
<path fill="none" stroke="grey" stroke-width="2" d="M585.03,-229.472C685.756,-223.5 882.196,-209.253 1057.71,-180.088"/>
<polygon fill="grey" stroke="grey" stroke-width="2" points="1058.36,-183.528 1067.64,-178.418 1057.2,-176.625 1058.36,-183.528"/>
</g>
<!-- 18&#45;&gt;12 -->
<g id="edge32" class="edge"><title>18&#45;&gt;12</title>
<path fill="none" stroke="grey" stroke-width="2" d="M495.011,-215.697C483.186,-206.796 468.608,-195.823 455.821,-186.199"/>
<polygon fill="grey" stroke="grey" stroke-width="2" points="457.819,-183.322 447.724,-180.104 453.609,-188.915 457.819,-183.322"/>
</g>
<!-- 18&#45;&gt;13 -->
<g id="edge34" class="edge"><title>18&#45;&gt;13</title>
<path fill="none" stroke="grey" stroke-width="2" d="M540.989,-215.697C552.814,-206.796 567.392,-195.823 580.179,-186.199"/>
<polygon fill="grey" stroke="grey" stroke-width="2" points="582.391,-188.915 588.276,-180.104 578.181,-183.322 582.391,-188.915"/>
</g>
<!-- 18&#45;&gt;16 -->
<g id="edge38" class="edge"><title>18&#45;&gt;16</title>
<path fill="none" stroke="grey" stroke-width="2" d="M585.329,-225.104C659.481,-216.078 782.438,-200.135 897.878,-180.131"/>
<polygon fill="grey" stroke="grey" stroke-width="2" points="898.702,-183.54 907.951,-178.372 897.498,-176.645 898.702,-183.54"/>
</g>
<!-- 18&#45;&gt;17 -->
<g id="edge40" class="edge"><title>18&#45;&gt;17</title>
<path fill="none" stroke="grey" stroke-width="2" d="M585.304,-216.411C626.543,-206.246 679.533,-193.185 722.789,-182.524"/>
<polygon fill="grey" stroke="grey" stroke-width="2" points="723.838,-185.87 732.71,-180.078 722.163,-179.073 723.838,-185.87"/>
</g>
<!-- 19 -->
<g id="node20" class="node"><title>19</title>
<path fill="none" stroke="#78d856" stroke-width="2" d="M1184,-252C1184,-252 1074,-252 1074,-252 1068,-252 1062,-246 1062,-240 1062,-240 1062,-228 1062,-228 1062,-222 1068,-216 1074,-216 1074,-216 1184,-216 1184,-216 1190,-216 1196,-222 1196,-228 1196,-228 1196,-240 1196,-240 1196,-246 1190,-252 1184,-252"/>
<text text-anchor="middle" x="1129" y="-231.5" font-family="sans" font-size="10.00">calculate_fidelity_based</text>
</g>
<!-- 19&#45;&gt;2 -->
<g id="edge19" class="edge"><title>19&#45;&gt;2</title>
<path fill="none" stroke="grey" stroke-width="2" d="M1196.16,-228.915C1265.75,-223.116 1367.7,-209.69 1392,-180 1407.27,-161.35 1393.8,-135.373 1379.19,-116.297"/>
<polygon fill="grey" stroke="grey" stroke-width="2" points="1381.74,-113.884 1372.72,-108.327 1376.31,-118.296 1381.74,-113.884"/>
</g>
<!-- 19&#45;&gt;4 -->
<g id="edge21" class="edge"><title>19&#45;&gt;4</title>
<path fill="none" stroke="grey" stroke-width="2" d="M1196.09,-227.785C1260.77,-221.198 1352,-207.265 1374,-180 1384.05,-167.548 1383.63,-156.777 1374,-144 1370.38,-139.193 1312.18,-122.997 1262.02,-109.761"/>
<polygon fill="grey" stroke="grey" stroke-width="2" points="1262.68,-106.314 1252.11,-107.157 1260.9,-113.084 1262.68,-106.314"/>
</g>
<!-- 19&#45;&gt;10 -->
<g id="edge29" class="edge"><title>19&#45;&gt;10</title>
<path fill="none" stroke="grey" stroke-width="2" d="M1167.65,-215.876C1189.25,-206.307 1216.35,-194.3 1239.27,-184.148"/>
<polygon fill="grey" stroke="grey" stroke-width="2" points="1240.75,-187.319 1248.47,-180.068 1237.91,-180.919 1240.75,-187.319"/>
</g>
<!-- 19&#45;&gt;11 -->
<g id="edge31" class="edge"><title>19&#45;&gt;11</title>
<path fill="none" stroke="grey" stroke-width="2" d="M1129,-215.697C1129,-207.983 1129,-198.712 1129,-190.112"/>
<polygon fill="grey" stroke="grey" stroke-width="2" points="1132.5,-190.104 1129,-180.104 1125.5,-190.104 1132.5,-190.104"/>
</g>
<!-- 19&#45;&gt;12 -->
<g id="edge33" class="edge"><title>19&#45;&gt;12</title>
<path fill="none" stroke="grey" stroke-width="2" d="M1061.75,-229.302C950.649,-222.724 721.633,-207.193 517.691,-180.013"/>
<polygon fill="grey" stroke="grey" stroke-width="2" points="518.069,-176.533 507.692,-178.669 517.136,-183.47 518.069,-176.533"/>
</g>
<!-- 19&#45;&gt;13 -->
<g id="edge35" class="edge"><title>19&#45;&gt;13</title>
<path fill="none" stroke="grey" stroke-width="2" d="M1061.65,-225.73C980.011,-216.659 838.022,-200.06 706.293,-180.153"/>
<polygon fill="grey" stroke="grey" stroke-width="2" points="706.432,-176.634 696.02,-178.59 705.38,-183.554 706.432,-176.634"/>
</g>
<!-- 19&#45;&gt;16 -->
<g id="edge39" class="edge"><title>19&#45;&gt;16</title>
<path fill="none" stroke="grey" stroke-width="2" d="M1092.31,-215.876C1071.98,-206.392 1046.53,-194.513 1024.9,-184.419"/>
<polygon fill="grey" stroke="grey" stroke-width="2" points="1026.12,-181.126 1015.57,-180.068 1023.16,-187.469 1026.12,-181.126"/>
</g>
<!-- 19&#45;&gt;17 -->
<g id="edge41" class="edge"><title>19&#45;&gt;17</title>
<path fill="none" stroke="grey" stroke-width="2" d="M1061.64,-218.581C1012.45,-208.05 945.244,-193.664 891.533,-182.166"/>
<polygon fill="grey" stroke="grey" stroke-width="2" points="892.18,-178.725 881.669,-180.054 890.714,-185.57 892.18,-178.725"/>
</g>
<!-- 20 -->
<g id="node21" class="node"><title>20</title>
<path fill="none" stroke="#61d856" stroke-width="2" d="M538.5,-396C538.5,-396 497.5,-396 497.5,-396 491.5,-396 485.5,-390 485.5,-384 485.5,-384 485.5,-372 485.5,-372 485.5,-366 491.5,-360 497.5,-360 497.5,-360 538.5,-360 538.5,-360 544.5,-360 550.5,-366 550.5,-372 550.5,-372 550.5,-384 550.5,-384 550.5,-390 544.5,-396 538.5,-396"/>
<text text-anchor="middle" x="518" y="-375.5" font-family="sans" font-size="10.00">fix_mates</text>
</g>
<!-- 20&#45;&gt;5 -->
<g id="edge22" class="edge"><title>20&#45;&gt;5</title>
<path fill="none" stroke="grey" stroke-width="2" d="M550.803,-376.546C673.343,-374.546 1103.89,-364.71 1234,-324 1279.73,-309.692 1326.33,-279.316 1355.43,-258.05"/>
<polygon fill="grey" stroke="grey" stroke-width="2" points="1357.58,-260.815 1363.52,-252.043 1353.4,-255.195 1357.58,-260.815"/>
</g>
<!-- 26 -->
<g id="node27" class="node"><title>26</title>
<path fill="none" stroke="#566bd8" stroke-width="2" d="M549,-324C549,-324 487,-324 487,-324 481,-324 475,-318 475,-312 475,-312 475,-300 475,-300 475,-294 481,-288 487,-288 487,-288 549,-288 549,-288 555,-288 561,-294 561,-300 561,-300 561,-312 561,-312 561,-318 555,-324 549,-324"/>
<text text-anchor="middle" x="518" y="-303.5" font-family="sans" font-size="10.00">sort_by_name</text>
</g>
<!-- 20&#45;&gt;26 -->
<g id="edge50" class="edge"><title>20&#45;&gt;26</title>
<path fill="none" stroke="grey" stroke-width="2" d="M518,-359.697C518,-351.983 518,-342.712 518,-334.112"/>
<polygon fill="grey" stroke="grey" stroke-width="2" points="521.5,-334.104 518,-324.104 514.5,-334.104 521.5,-334.104"/>
</g>
<!-- 21 -->
<g id="node22" class="node"><title>21</title>
<path fill="none" stroke="#61d856" stroke-width="2" d="M1401.5,-396C1401.5,-396 1360.5,-396 1360.5,-396 1354.5,-396 1348.5,-390 1348.5,-384 1348.5,-384 1348.5,-372 1348.5,-372 1348.5,-366 1354.5,-360 1360.5,-360 1360.5,-360 1401.5,-360 1401.5,-360 1407.5,-360 1413.5,-366 1413.5,-372 1413.5,-372 1413.5,-384 1413.5,-384 1413.5,-390 1407.5,-396 1401.5,-396"/>
<text text-anchor="middle" x="1381" y="-375.5" font-family="sans" font-size="10.00">fix_mates</text>
</g>
<!-- 21&#45;&gt;6 -->
<g id="edge23" class="edge"><title>21&#45;&gt;6</title>
<path fill="none" stroke="grey" stroke-width="2" d="M1393.91,-359.871C1412.54,-335.137 1447.13,-289.242 1468.78,-260.512"/>
<polygon fill="grey" stroke="grey" stroke-width="2" points="1471.82,-262.282 1475.05,-252.189 1466.23,-258.069 1471.82,-262.282"/>
</g>
<!-- 27 -->
<g id="node28" class="node"><title>27</title>
<path fill="none" stroke="#566bd8" stroke-width="2" d="M1213,-324C1213,-324 1151,-324 1151,-324 1145,-324 1139,-318 1139,-312 1139,-312 1139,-300 1139,-300 1139,-294 1145,-288 1151,-288 1151,-288 1213,-288 1213,-288 1219,-288 1225,-294 1225,-300 1225,-300 1225,-312 1225,-312 1225,-318 1219,-324 1213,-324"/>
<text text-anchor="middle" x="1182" y="-303.5" font-family="sans" font-size="10.00">sort_by_name</text>
</g>
<!-- 21&#45;&gt;27 -->
<g id="edge51" class="edge"><title>21&#45;&gt;27</title>
<path fill="none" stroke="grey" stroke-width="2" d="M1348.14,-365.441C1317.36,-354.615 1270.84,-338.252 1234.85,-325.591"/>
<polygon fill="grey" stroke="grey" stroke-width="2" points="1235.59,-322.142 1225,-322.126 1233.27,-328.746 1235.59,-322.142"/>
</g>
<!-- 22 -->
<g id="node23" class="node"><title>22</title>
<path fill="none" stroke="#56d89a" stroke-width="2" d="M342,-468C342,-468 298,-468 298,-468 292,-468 286,-462 286,-456 286,-456 286,-444 286,-444 286,-438 292,-432 298,-432 298,-432 342,-432 342,-432 348,-432 354,-438 354,-444 354,-444 354,-456 354,-456 354,-462 348,-468 342,-468"/>
<text text-anchor="middle" x="320" y="-447.5" font-family="sans" font-size="10.00">sortMaped</text>
</g>
<!-- 22&#45;&gt;7 -->
<g id="edge24" class="edge"><title>22&#45;&gt;7</title>
<path fill="none" stroke="grey" stroke-width="2" d="M321.054,-431.718C321.295,-411.978 318.618,-379.853 301,-360 271.707,-326.991 220.972,-314.526 185.555,-309.827"/>
<polygon fill="grey" stroke="grey" stroke-width="2" points="185.89,-306.342 175.55,-308.65 185.072,-313.294 185.89,-306.342"/>
</g>
<!-- 22&#45;&gt;20 -->
<g id="edge44" class="edge"><title>22&#45;&gt;20</title>
<path fill="none" stroke="grey" stroke-width="2" d="M354.037,-436.967C387.693,-425.068 439.281,-406.83 475.585,-393.995"/>
<polygon fill="grey" stroke="grey" stroke-width="2" points="477.13,-397.161 485.392,-390.528 474.797,-390.562 477.13,-397.161"/>
</g>
<!-- 23 -->
<g id="node24" class="node"><title>23</title>
<path fill="none" stroke="#80d856" stroke-width="2" d="M280,-396C280,-396 12,-396 12,-396 6,-396 0,-390 0,-384 0,-384 0,-372 0,-372 0,-366 6,-360 12,-360 12,-360 280,-360 280,-360 286,-360 292,-366 292,-372 292,-372 292,-384 292,-384 292,-390 286,-396 280,-396"/>
<text text-anchor="middle" x="146" y="-381" font-family="sans" font-size="10.00">indexing</text>
<text text-anchor="middle" x="146" y="-370" font-family="sans" font-size="10.00">stem: ALIGNED/dwgsim_umi_fidelity_errors_ren_subSort</text>
</g>
<!-- 22&#45;&gt;23 -->
<g id="edge47" class="edge"><title>22&#45;&gt;23</title>
<path fill="none" stroke="grey" stroke-width="2" d="M285.623,-435.17C260.53,-425.075 226.082,-411.217 197.682,-399.792"/>
<polygon fill="grey" stroke="grey" stroke-width="2" points="198.888,-396.504 188.304,-396.019 196.276,-402.998 198.888,-396.504"/>
</g>
<!-- 23&#45;&gt;7 -->
<g id="edge25" class="edge"><title>23&#45;&gt;7</title>
<path fill="none" stroke="grey" stroke-width="2" d="M146,-359.697C146,-351.983 146,-342.712 146,-334.112"/>
<polygon fill="grey" stroke="grey" stroke-width="2" points="149.5,-334.104 146,-324.104 142.5,-334.104 149.5,-334.104"/>
</g>
<!-- 24 -->
<g id="node25" class="node"><title>24</title>
<path fill="none" stroke="#56d89a" stroke-width="2" d="M1464,-468C1464,-468 1420,-468 1420,-468 1414,-468 1408,-462 1408,-456 1408,-456 1408,-444 1408,-444 1408,-438 1414,-432 1420,-432 1420,-432 1464,-432 1464,-432 1470,-432 1476,-438 1476,-444 1476,-444 1476,-456 1476,-456 1476,-462 1470,-468 1464,-468"/>
<text text-anchor="middle" x="1442" y="-447.5" font-family="sans" font-size="10.00">sortMaped</text>
</g>
<!-- 24&#45;&gt;8 -->
<g id="edge26" class="edge"><title>24&#45;&gt;8</title>
<path fill="none" stroke="grey" stroke-width="2" d="M1441.81,-431.695C1442.42,-412.518 1445.94,-381.47 1461,-360 1472.46,-343.664 1490.73,-331.324 1507.39,-322.68"/>
<polygon fill="grey" stroke="grey" stroke-width="2" points="1508.99,-325.795 1516.43,-318.256 1505.91,-319.508 1508.99,-325.795"/>
</g>
<!-- 24&#45;&gt;21 -->
<g id="edge45" class="edge"><title>24&#45;&gt;21</title>
<path fill="none" stroke="grey" stroke-width="2" d="M1426.92,-431.697C1419.61,-423.305 1410.69,-413.07 1402.66,-403.861"/>
<polygon fill="grey" stroke="grey" stroke-width="2" points="1405.11,-401.344 1395.91,-396.104 1399.84,-405.943 1405.11,-401.344"/>
</g>
<!-- 25 -->
<g id="node26" class="node"><title>25</title>
<path fill="none" stroke="#80d856" stroke-width="2" d="M1817.5,-396C1817.5,-396 1482.5,-396 1482.5,-396 1476.5,-396 1470.5,-390 1470.5,-384 1470.5,-384 1470.5,-372 1470.5,-372 1470.5,-366 1476.5,-360 1482.5,-360 1482.5,-360 1817.5,-360 1817.5,-360 1823.5,-360 1829.5,-366 1829.5,-372 1829.5,-372 1829.5,-384 1829.5,-384 1829.5,-390 1823.5,-396 1817.5,-396"/>
<text text-anchor="middle" x="1650" y="-381" font-family="sans" font-size="10.00">indexing</text>
<text text-anchor="middle" x="1650" y="-370" font-family="sans" font-size="10.00">stem: ALIGNED/dwgsim_umi_fidelity_errors_with_background_subSort</text>
</g>
<!-- 24&#45;&gt;25 -->
<g id="edge49" class="edge"><title>24&#45;&gt;25</title>
<path fill="none" stroke="grey" stroke-width="2" d="M1476.35,-437.441C1507.06,-427.103 1552.78,-411.717 1589.6,-399.326"/>
<polygon fill="grey" stroke="grey" stroke-width="2" points="1590.88,-402.589 1599.24,-396.082 1588.65,-395.954 1590.88,-402.589"/>
</g>
<!-- 25&#45;&gt;8 -->
<g id="edge27" class="edge"><title>25&#45;&gt;8</title>
<path fill="none" stroke="grey" stroke-width="2" d="M1624.56,-359.876C1611.21,-350.893 1594.68,-339.763 1580.22,-330.034"/>
<polygon fill="grey" stroke="grey" stroke-width="2" points="1581.79,-326.87 1571.54,-324.19 1577.88,-332.677 1581.79,-326.87"/>
</g>
<!-- 26&#45;&gt;18 -->
<g id="edge42" class="edge"><title>26&#45;&gt;18</title>
<path fill="none" stroke="grey" stroke-width="2" d="M518,-287.697C518,-279.983 518,-270.712 518,-262.112"/>
<polygon fill="grey" stroke="grey" stroke-width="2" points="521.5,-262.104 518,-252.104 514.5,-262.104 521.5,-262.104"/>
</g>
<!-- 27&#45;&gt;19 -->
<g id="edge43" class="edge"><title>27&#45;&gt;19</title>
<path fill="none" stroke="grey" stroke-width="2" d="M1168.9,-287.697C1162.61,-279.389 1154.95,-269.277 1148.04,-260.141"/>
<polygon fill="grey" stroke="grey" stroke-width="2" points="1150.78,-257.964 1141.95,-252.104 1145.2,-262.19 1150.78,-257.964"/>
</g>
<!-- 28 -->
<g id="node29" class="node"><title>28</title>
<path fill="none" stroke="#56d0d8" stroke-width="2" d="M353,-540C353,-540 287,-540 287,-540 281,-540 275,-534 275,-528 275,-528 275,-516 275,-516 275,-510 281,-504 287,-504 287,-504 353,-504 353,-504 359,-504 365,-510 365,-516 365,-516 365,-528 365,-528 365,-534 359,-540 353,-540"/>
<text text-anchor="middle" x="320" y="-519.5" font-family="sans" font-size="10.00">pair_align_bwa</text>
</g>
<!-- 28&#45;&gt;22 -->
<g id="edge46" class="edge"><title>28&#45;&gt;22</title>
<path fill="none" stroke="grey" stroke-width="2" d="M320,-503.697C320,-495.983 320,-486.712 320,-478.112"/>
<polygon fill="grey" stroke="grey" stroke-width="2" points="323.5,-478.104 320,-468.104 316.5,-478.104 323.5,-478.104"/>
</g>
<!-- 29 -->
<g id="node30" class="node"><title>29</title>
<path fill="none" stroke="#56d0d8" stroke-width="2" d="M1475,-540C1475,-540 1409,-540 1409,-540 1403,-540 1397,-534 1397,-528 1397,-528 1397,-516 1397,-516 1397,-510 1403,-504 1409,-504 1409,-504 1475,-504 1475,-504 1481,-504 1487,-510 1487,-516 1487,-516 1487,-528 1487,-528 1487,-534 1481,-540 1475,-540"/>
<text text-anchor="middle" x="1442" y="-519.5" font-family="sans" font-size="10.00">pair_align_bwa</text>
</g>
<!-- 29&#45;&gt;24 -->
<g id="edge48" class="edge"><title>29&#45;&gt;24</title>
<path fill="none" stroke="grey" stroke-width="2" d="M1442,-503.697C1442,-495.983 1442,-486.712 1442,-478.112"/>
<polygon fill="grey" stroke="grey" stroke-width="2" points="1445.5,-478.104 1442,-468.104 1438.5,-478.104 1445.5,-478.104"/>
</g>
<!-- 30 -->
<g id="node31" class="node"><title>30</title>
<path fill="none" stroke="#d8b456" stroke-width="2" d="M364.5,-612C364.5,-612 275.5,-612 275.5,-612 269.5,-612 263.5,-606 263.5,-600 263.5,-600 263.5,-588 263.5,-588 263.5,-582 269.5,-576 275.5,-576 275.5,-576 364.5,-576 364.5,-576 370.5,-576 376.5,-582 376.5,-588 376.5,-588 376.5,-600 376.5,-600 376.5,-606 370.5,-612 364.5,-612"/>
<text text-anchor="middle" x="320" y="-591.5" font-family="sans" font-size="10.00">trim_adapters_pe_2</text>
</g>
<!-- 30&#45;&gt;28 -->
<g id="edge52" class="edge"><title>30&#45;&gt;28</title>
<path fill="none" stroke="grey" stroke-width="2" d="M320,-575.697C320,-567.983 320,-558.712 320,-550.112"/>
<polygon fill="grey" stroke="grey" stroke-width="2" points="323.5,-550.104 320,-540.104 316.5,-550.104 323.5,-550.104"/>
</g>
<!-- 31 -->
<g id="node32" class="node"><title>31</title>
<path fill="none" stroke="#d8b456" stroke-width="2" d="M1486.5,-612C1486.5,-612 1397.5,-612 1397.5,-612 1391.5,-612 1385.5,-606 1385.5,-600 1385.5,-600 1385.5,-588 1385.5,-588 1385.5,-582 1391.5,-576 1397.5,-576 1397.5,-576 1486.5,-576 1486.5,-576 1492.5,-576 1498.5,-582 1498.5,-588 1498.5,-588 1498.5,-600 1498.5,-600 1498.5,-606 1492.5,-612 1486.5,-612"/>
<text text-anchor="middle" x="1442" y="-591.5" font-family="sans" font-size="10.00">trim_adapters_pe_2</text>
</g>
<!-- 31&#45;&gt;29 -->
<g id="edge53" class="edge"><title>31&#45;&gt;29</title>
<path fill="none" stroke="grey" stroke-width="2" d="M1442,-575.697C1442,-567.983 1442,-558.712 1442,-550.112"/>
<polygon fill="grey" stroke="grey" stroke-width="2" points="1445.5,-550.104 1442,-540.104 1438.5,-550.104 1445.5,-550.104"/>
</g>
<!-- 32 -->
<g id="node33" class="node"><title>32</title>
<path fill="none" stroke="#bed856" stroke-width="2" d="M299,-684C299,-684 255,-684 255,-684 249,-684 243,-678 243,-672 243,-672 243,-660 243,-660 243,-654 249,-648 255,-648 255,-648 299,-648 299,-648 305,-648 311,-654 311,-660 311,-660 311,-672 311,-672 311,-678 305,-684 299,-684"/>
<text text-anchor="middle" x="277" y="-663.5" font-family="sans" font-size="10.00">get_fastq1</text>
</g>
<!-- 32&#45;&gt;30 -->
<g id="edge54" class="edge"><title>32&#45;&gt;30</title>
<path fill="none" stroke="grey" stroke-width="2" d="M287.629,-647.697C292.628,-639.559 298.691,-629.689 304.212,-620.701"/>
<polygon fill="grey" stroke="grey" stroke-width="2" points="307.241,-622.457 309.493,-612.104 301.277,-618.793 307.241,-622.457"/>
</g>
<!-- 33 -->
<g id="node34" class="node"><title>33</title>
<path fill="none" stroke="#d85656" stroke-width="2" d="M385,-684C385,-684 341,-684 341,-684 335,-684 329,-678 329,-672 329,-672 329,-660 329,-660 329,-654 335,-648 341,-648 341,-648 385,-648 385,-648 391,-648 397,-654 397,-660 397,-660 397,-672 397,-672 397,-678 391,-684 385,-684"/>
<text text-anchor="middle" x="363" y="-663.5" font-family="sans" font-size="10.00">get_fastq2</text>
</g>
<!-- 33&#45;&gt;30 -->
<g id="edge55" class="edge"><title>33&#45;&gt;30</title>
<path fill="none" stroke="grey" stroke-width="2" d="M352.371,-647.697C347.372,-639.559 341.309,-629.689 335.788,-620.701"/>
<polygon fill="grey" stroke="grey" stroke-width="2" points="338.723,-618.793 330.507,-612.104 332.759,-622.457 338.723,-618.793"/>
</g>
<!-- 34 -->
<g id="node35" class="node"><title>34</title>
<path fill="none" stroke="#bed856" stroke-width="2" d="M1421,-684C1421,-684 1377,-684 1377,-684 1371,-684 1365,-678 1365,-672 1365,-672 1365,-660 1365,-660 1365,-654 1371,-648 1377,-648 1377,-648 1421,-648 1421,-648 1427,-648 1433,-654 1433,-660 1433,-660 1433,-672 1433,-672 1433,-678 1427,-684 1421,-684"/>
<text text-anchor="middle" x="1399" y="-663.5" font-family="sans" font-size="10.00">get_fastq1</text>
</g>
<!-- 34&#45;&gt;31 -->
<g id="edge56" class="edge"><title>34&#45;&gt;31</title>
<path fill="none" stroke="grey" stroke-width="2" d="M1409.63,-647.697C1414.63,-639.559 1420.69,-629.689 1426.21,-620.701"/>
<polygon fill="grey" stroke="grey" stroke-width="2" points="1429.24,-622.457 1431.49,-612.104 1423.28,-618.793 1429.24,-622.457"/>
</g>
<!-- 35 -->
<g id="node36" class="node"><title>35</title>
<path fill="none" stroke="#d85656" stroke-width="2" d="M1507,-684C1507,-684 1463,-684 1463,-684 1457,-684 1451,-678 1451,-672 1451,-672 1451,-660 1451,-660 1451,-654 1457,-648 1463,-648 1463,-648 1507,-648 1507,-648 1513,-648 1519,-654 1519,-660 1519,-660 1519,-672 1519,-672 1519,-678 1513,-684 1507,-684"/>
<text text-anchor="middle" x="1485" y="-663.5" font-family="sans" font-size="10.00">get_fastq2</text>
</g>
<!-- 35&#45;&gt;31 -->
<g id="edge57" class="edge"><title>35&#45;&gt;31</title>
<path fill="none" stroke="grey" stroke-width="2" d="M1474.37,-647.697C1469.37,-639.559 1463.31,-629.689 1457.79,-620.701"/>
<polygon fill="grey" stroke="grey" stroke-width="2" points="1460.72,-618.793 1452.51,-612.104 1454.76,-622.457 1460.72,-618.793"/>
</g>
<!-- 36 -->
<g id="node37" class="node"><title>36</title>
<path fill="none" stroke="#56a2d8" stroke-width="2" d="M409.5,-756C409.5,-756 230.5,-756 230.5,-756 224.5,-756 218.5,-750 218.5,-744 218.5,-744 218.5,-732 218.5,-732 218.5,-726 224.5,-720 230.5,-720 230.5,-720 409.5,-720 409.5,-720 415.5,-720 421.5,-726 421.5,-732 421.5,-732 421.5,-744 421.5,-744 421.5,-750 415.5,-756 409.5,-756"/>
<text text-anchor="middle" x="320" y="-741" font-family="sans" font-size="10.00">generate_script_for_merging_files</text>
<text text-anchor="middle" x="320" y="-730" font-family="sans" font-size="10.00">stem: dwgsim_umi_fidelity_errors_ren</text>
</g>
<!-- 36&#45;&gt;32 -->
<g id="edge58" class="edge"><title>36&#45;&gt;32</title>
<path fill="none" stroke="grey" stroke-width="2" d="M309.371,-719.697C304.372,-711.559 298.309,-701.689 292.788,-692.701"/>
<polygon fill="grey" stroke="grey" stroke-width="2" points="295.723,-690.793 287.507,-684.104 289.759,-694.457 295.723,-690.793"/>
</g>
<!-- 36&#45;&gt;33 -->
<g id="edge59" class="edge"><title>36&#45;&gt;33</title>
<path fill="none" stroke="grey" stroke-width="2" d="M330.629,-719.697C335.628,-711.559 341.691,-701.689 347.212,-692.701"/>
<polygon fill="grey" stroke="grey" stroke-width="2" points="350.241,-694.457 352.493,-684.104 344.277,-690.793 350.241,-694.457"/>
</g>
<!-- 37 -->
<g id="node38" class="node"><title>37</title>
<path fill="none" stroke="#56a2d8" stroke-width="2" d="M1565.5,-756C1565.5,-756 1318.5,-756 1318.5,-756 1312.5,-756 1306.5,-750 1306.5,-744 1306.5,-744 1306.5,-732 1306.5,-732 1306.5,-726 1312.5,-720 1318.5,-720 1318.5,-720 1565.5,-720 1565.5,-720 1571.5,-720 1577.5,-726 1577.5,-732 1577.5,-732 1577.5,-744 1577.5,-744 1577.5,-750 1571.5,-756 1565.5,-756"/>
<text text-anchor="middle" x="1442" y="-741" font-family="sans" font-size="10.00">generate_script_for_merging_files</text>
<text text-anchor="middle" x="1442" y="-730" font-family="sans" font-size="10.00">stem: dwgsim_umi_fidelity_errors_with_background</text>
</g>
<!-- 37&#45;&gt;34 -->
<g id="edge60" class="edge"><title>37&#45;&gt;34</title>
<path fill="none" stroke="grey" stroke-width="2" d="M1431.37,-719.697C1426.37,-711.559 1420.31,-701.689 1414.79,-692.701"/>
<polygon fill="grey" stroke="grey" stroke-width="2" points="1417.72,-690.793 1409.51,-684.104 1411.76,-694.457 1417.72,-690.793"/>
</g>
<!-- 37&#45;&gt;35 -->
<g id="edge61" class="edge"><title>37&#45;&gt;35</title>
<path fill="none" stroke="grey" stroke-width="2" d="M1452.63,-719.697C1457.63,-711.559 1463.69,-701.689 1469.21,-692.701"/>
<polygon fill="grey" stroke="grey" stroke-width="2" points="1472.24,-694.457 1474.49,-684.104 1466.28,-690.793 1472.24,-694.457"/>
</g>
</g>
</svg>
