<?xml version="1.0" encoding="UTF-8" standalone="no"?>
<!DOCTYPE svg PUBLIC "-//W3C//DTD SVG 1.1//EN"
 "http://www.w3.org/Graphics/SVG/1.1/DTD/svg11.dtd">
<!-- Generated by graphviz version 2.38.0 (20140413.2041)
 -->
<!-- Title: snakemake_dag Pages: 1 -->
<svg width="1777pt" height="980pt"
 viewBox="0.00 0.00 1776.71 980.00" xmlns="http://www.w3.org/2000/svg" xmlns:xlink="http://www.w3.org/1999/xlink">
<g id="graph0" class="graph" transform="scale(1 1) rotate(0) translate(4 976)">
<title>snakemake_dag</title>
<polygon fill="white" stroke="none" points="-4,4 -4,-976 1772.71,-976 1772.71,4 -4,4"/>
<!-- 0 -->
<g id="node1" class="node"><title>0</title>
<path fill="none" stroke="#d8d356" stroke-width="2" d="M1030.21,-36C1030.21,-36 980.208,-36 980.208,-36 974.208,-36 968.208,-30 968.208,-24 968.208,-24 968.208,-12 968.208,-12 968.208,-6 974.208,-0 980.208,-0 980.208,-0 1030.21,-0 1030.21,-0 1036.21,-0 1042.21,-6 1042.21,-12 1042.21,-12 1042.21,-24 1042.21,-24 1042.21,-30 1036.21,-36 1030.21,-36"/>
<text text-anchor="middle" x="1005.21" y="-15.5" font-family="sans" font-size="10.00">umi_fidelity</text>
</g>
<!-- 1 -->
<g id="node2" class="node"><title>1</title>
<path fill="none" stroke="#d86e56" stroke-width="2" d="M320.708,-108C320.708,-108 173.708,-108 173.708,-108 167.708,-108 161.708,-102 161.708,-96 161.708,-96 161.708,-84 161.708,-84 161.708,-78 167.708,-72 173.708,-72 173.708,-72 320.708,-72 320.708,-72 326.708,-72 332.708,-78 332.708,-84 332.708,-84 332.708,-96 332.708,-96 332.708,-102 326.708,-108 320.708,-108"/>
<text text-anchor="middle" x="247.208" y="-87.5" font-family="sans" font-size="10.00">plot_frequencies_fidelity_based</text>
</g>
<!-- 1&#45;&gt;0 -->
<g id="edge1" class="edge"><title>1&#45;&gt;0</title>
<path fill="none" stroke="grey" stroke-width="2" d="M332.853,-73.2785C336.008,-72.8254 339.134,-72.397 342.208,-72 572.134,-42.309 849.21,-26.5903 958.056,-21.1901"/>
<polygon fill="grey" stroke="grey" stroke-width="2" points="958.241,-24.6854 968.057,-20.6996 957.898,-17.6938 958.241,-24.6854"/>
</g>
<!-- 2 -->
<g id="node3" class="node"><title>2</title>
<path fill="none" stroke="#569ad8" stroke-width="2" d="M465.208,-108C465.208,-108 363.208,-108 363.208,-108 357.208,-108 351.208,-102 351.208,-96 351.208,-96 351.208,-84 351.208,-84 351.208,-78 357.208,-72 363.208,-72 363.208,-72 465.208,-72 465.208,-72 471.208,-72 477.208,-78 477.208,-84 477.208,-84 477.208,-96 477.208,-96 477.208,-102 471.208,-108 465.208,-108"/>
<text text-anchor="middle" x="414.208" y="-87.5" font-family="sans" font-size="10.00">umi_size_distributions</text>
</g>
<!-- 2&#45;&gt;0 -->
<g id="edge2" class="edge"><title>2&#45;&gt;0</title>
<path fill="none" stroke="grey" stroke-width="2" d="M477.329,-73.606C480.324,-73.0301 483.295,-72.4905 486.208,-72 658.855,-42.9296 866.682,-27.5424 958.129,-21.749"/>
<polygon fill="grey" stroke="grey" stroke-width="2" points="958.412,-25.2382 968.174,-21.1217 957.976,-18.2518 958.412,-25.2382"/>
</g>
<!-- 3 -->
<g id="node4" class="node"><title>3</title>
<path fill="none" stroke="#97d856" stroke-width="2" d="M182.708,-252C182.708,-252 147.708,-252 147.708,-252 141.708,-252 135.708,-246 135.708,-240 135.708,-240 135.708,-228 135.708,-228 135.708,-222 141.708,-216 147.708,-216 147.708,-216 182.708,-216 182.708,-216 188.708,-216 194.708,-222 194.708,-228 194.708,-228 194.708,-240 194.708,-240 194.708,-246 188.708,-252 182.708,-252"/>
<text text-anchor="middle" x="165.208" y="-231.5" font-family="sans" font-size="10.00">flagstat2</text>
</g>
<!-- 3&#45;&gt;0 -->
<g id="edge3" class="edge"><title>3&#45;&gt;0</title>
<path fill="none" stroke="grey" stroke-width="2" d="M156.617,-215.967C141.49,-183.29 115.047,-111.541 152.208,-72 179.981,-42.4479 782.611,-24.7128 957.827,-20.1677"/>
<polygon fill="grey" stroke="grey" stroke-width="2" points="958.115,-23.6616 968.022,-19.9057 957.935,-16.6639 958.115,-23.6616"/>
</g>
<!-- 4 -->
<g id="node5" class="node"><title>4</title>
<path fill="none" stroke="#56d863" stroke-width="2" d="M112.708,-468C112.708,-468 77.7077,-468 77.7077,-468 71.7077,-468 65.7077,-462 65.7077,-456 65.7077,-456 65.7077,-444 65.7077,-444 65.7077,-438 71.7077,-432 77.7077,-432 77.7077,-432 112.708,-432 112.708,-432 118.708,-432 124.708,-438 124.708,-444 124.708,-444 124.708,-456 124.708,-456 124.708,-462 118.708,-468 112.708,-468"/>
<text text-anchor="middle" x="95.2077" y="-447.5" font-family="sans" font-size="10.00">flagstat1</text>
</g>
<!-- 4&#45;&gt;0 -->
<g id="edge4" class="edge"><title>4&#45;&gt;0</title>
<path fill="none" stroke="grey" stroke-width="2" d="M95.2077,-431.951C95.2077,-405.292 95.2077,-352.115 95.2077,-307 95.2077,-307 95.2077,-307 95.2077,-161 95.2077,-118.162 97.3112,-96.8455 132.208,-72 199.673,-23.9665 786.188,-19.3104 958.066,-18.9833"/>
<polygon fill="grey" stroke="grey" stroke-width="2" points="958.078,-22.4834 968.073,-18.9683 958.067,-15.4834 958.078,-22.4834"/>
</g>
<!-- 5 -->
<g id="node6" class="node"><title>5</title>
<path fill="none" stroke="#a7d856" stroke-width="2" d="M640.708,-108C640.708,-108 507.708,-108 507.708,-108 501.708,-108 495.708,-102 495.708,-96 495.708,-96 495.708,-84 495.708,-84 495.708,-78 501.708,-72 507.708,-72 507.708,-72 640.708,-72 640.708,-72 646.708,-72 652.708,-78 652.708,-84 652.708,-84 652.708,-96 652.708,-96 652.708,-102 646.708,-108 640.708,-108"/>
<text text-anchor="middle" x="574.208" y="-87.5" font-family="sans" font-size="10.00">umi_error_distributions_read</text>
</g>
<!-- 5&#45;&gt;0 -->
<g id="edge5" class="edge"><title>5&#45;&gt;0</title>
<path fill="none" stroke="grey" stroke-width="2" d="M652.863,-73.6536C656.017,-73.0862 659.142,-72.5328 662.208,-72 767.584,-53.687 891.733,-35.2888 957.961,-25.7279"/>
<polygon fill="grey" stroke="grey" stroke-width="2" points="958.682,-29.1603 968.081,-24.2707 957.684,-22.2317 958.682,-29.1603"/>
</g>
<!-- 6 -->
<g id="node7" class="node"><title>6</title>
<path fill="none" stroke="#56d8b9" stroke-width="2" d="M781.208,-108C781.208,-108 683.208,-108 683.208,-108 677.208,-108 671.208,-102 671.208,-96 671.208,-96 671.208,-84 671.208,-84 671.208,-78 677.208,-72 683.208,-72 683.208,-72 781.208,-72 781.208,-72 787.208,-72 793.208,-78 793.208,-84 793.208,-84 793.208,-96 793.208,-96 793.208,-102 787.208,-108 781.208,-108"/>
<text text-anchor="middle" x="732.208" y="-87.5" font-family="sans" font-size="10.00">merge_fidelity_based</text>
</g>
<!-- 6&#45;&gt;0 -->
<g id="edge6" class="edge"><title>6&#45;&gt;0</title>
<path fill="none" stroke="grey" stroke-width="2" d="M793.474,-73.2906C843.312,-60.5117 912.609,-42.7432 958.16,-31.0635"/>
<polygon fill="grey" stroke="grey" stroke-width="2" points="959.252,-34.3969 968.069,-28.5228 957.513,-27.6163 959.252,-34.3969"/>
</g>
<!-- 7 -->
<g id="node8" class="node"><title>7</title>
<path fill="none" stroke="#56d89a" stroke-width="2" d="M964.708,-108C964.708,-108 823.708,-108 823.708,-108 817.708,-108 811.708,-102 811.708,-96 811.708,-96 811.708,-84 811.708,-84 811.708,-78 817.708,-72 823.708,-72 823.708,-72 964.708,-72 964.708,-72 970.708,-72 976.708,-78 976.708,-84 976.708,-84 976.708,-96 976.708,-96 976.708,-102 970.708,-108 964.708,-108"/>
<text text-anchor="middle" x="894.208" y="-87.5" font-family="sans" font-size="10.00">merge_fidelity_transitversions</text>
</g>
<!-- 7&#45;&gt;0 -->
<g id="edge7" class="edge"><title>7&#45;&gt;0</title>
<path fill="none" stroke="grey" stroke-width="2" d="M921.361,-71.8761C935.74,-62.8083 953.589,-51.5523 969.118,-41.7592"/>
<polygon fill="grey" stroke="grey" stroke-width="2" points="971.358,-44.4845 977.95,-36.1898 967.624,-38.5635 971.358,-44.4845"/>
</g>
<!-- 8 -->
<g id="node9" class="node"><title>8</title>
<path fill="none" stroke="#d85656" stroke-width="2" d="M875.208,-180C875.208,-180 729.208,-180 729.208,-180 723.208,-180 717.208,-174 717.208,-168 717.208,-168 717.208,-156 717.208,-156 717.208,-150 723.208,-144 729.208,-144 729.208,-144 875.208,-144 875.208,-144 881.208,-144 887.208,-150 887.208,-156 887.208,-156 887.208,-168 887.208,-168 887.208,-174 881.208,-180 875.208,-180"/>
<text text-anchor="middle" x="802.208" y="-159.5" font-family="sans" font-size="10.00">merge_fidelity_transvers_types</text>
</g>
<!-- 8&#45;&gt;0 -->
<g id="edge8" class="edge"><title>8&#45;&gt;0</title>
<path fill="none" stroke="grey" stroke-width="2" d="M887.283,-145.058C928.129,-135.733 971.211,-122.875 985.208,-108 1000.68,-91.5536 1005.12,-65.8159 1006.02,-46.2401"/>
<polygon fill="grey" stroke="grey" stroke-width="2" points="1009.52,-46.1579 1006.2,-36.0967 1002.52,-46.0324 1009.52,-46.1579"/>
</g>
<!-- 9 -->
<g id="node10" class="node"><title>9</title>
<path fill="none" stroke="#56d8d0" stroke-width="2" d="M1211.21,-108C1211.21,-108 1121.21,-108 1121.21,-108 1115.21,-108 1109.21,-102 1109.21,-96 1109.21,-96 1109.21,-84 1109.21,-84 1109.21,-78 1115.21,-72 1121.21,-72 1121.21,-72 1211.21,-72 1211.21,-72 1217.21,-72 1223.21,-78 1223.21,-84 1223.21,-84 1223.21,-96 1223.21,-96 1223.21,-102 1217.21,-108 1211.21,-108"/>
<text text-anchor="middle" x="1166.21" y="-87.5" font-family="sans" font-size="10.00">plot_cumulative_err</text>
</g>
<!-- 9&#45;&gt;0 -->
<g id="edge9" class="edge"><title>9&#45;&gt;0</title>
<path fill="none" stroke="grey" stroke-width="2" d="M1126.82,-71.8761C1104.06,-61.9783 1075.3,-49.4732 1051.46,-39.1094"/>
<polygon fill="grey" stroke="grey" stroke-width="2" points="1052.82,-35.884 1042.25,-35.1064 1050.03,-42.3035 1052.82,-35.884"/>
</g>
<!-- 10 -->
<g id="node11" class="node"><title>10</title>
<path fill="none" stroke="#5682d8" stroke-width="2" d="M1337.21,-108C1337.21,-108 1253.21,-108 1253.21,-108 1247.21,-108 1241.21,-102 1241.21,-96 1241.21,-96 1241.21,-84 1241.21,-84 1241.21,-78 1247.21,-72 1253.21,-72 1253.21,-72 1337.21,-72 1337.21,-72 1343.21,-72 1349.21,-78 1349.21,-84 1349.21,-84 1349.21,-96 1349.21,-96 1349.21,-102 1343.21,-108 1337.21,-108"/>
<text text-anchor="middle" x="1295.21" y="-87.5" font-family="sans" font-size="10.00">plot_scatter_errors</text>
</g>
<!-- 10&#45;&gt;0 -->
<g id="edge10" class="edge"><title>10&#45;&gt;0</title>
<path fill="none" stroke="grey" stroke-width="2" d="M1240.94,-74.2307C1237.99,-73.4666 1235.06,-72.7186 1232.21,-72 1170.18,-56.3948 1098.22,-39.8572 1052.23,-29.4864"/>
<polygon fill="grey" stroke="grey" stroke-width="2" points="1052.79,-26.0231 1042.26,-27.2422 1051.25,-32.8523 1052.79,-26.0231"/>
</g>
<!-- 11 -->
<g id="node12" class="node"><title>11</title>
<path fill="none" stroke="#70d856" stroke-width="2" d="M1035.21,-180C1035.21,-180 917.208,-180 917.208,-180 911.208,-180 905.208,-174 905.208,-168 905.208,-168 905.208,-156 905.208,-156 905.208,-150 911.208,-144 917.208,-144 917.208,-144 1035.21,-144 1035.21,-144 1041.21,-144 1047.21,-150 1047.21,-156 1047.21,-156 1047.21,-168 1047.21,-168 1047.21,-174 1041.21,-180 1035.21,-180"/>
<text text-anchor="middle" x="976.208" y="-159.5" font-family="sans" font-size="10.00">merge_fidelity_mutations</text>
</g>
<!-- 11&#45;&gt;0 -->
<g id="edge11" class="edge"><title>11&#45;&gt;0</title>
<path fill="none" stroke="grey" stroke-width="2" d="M995.247,-143.837C1004.38,-134.3 1014.38,-121.624 1019.21,-108 1026.36,-87.8193 1021.86,-63.7719 1016.13,-45.764"/>
<polygon fill="grey" stroke="grey" stroke-width="2" points="1019.38,-44.4756 1012.78,-36.1893 1012.78,-46.7842 1019.38,-44.4756"/>
</g>
<!-- 12 -->
<g id="node13" class="node"><title>12</title>
<path fill="none" stroke="#78d856" stroke-width="2" d="M1229.21,-180C1229.21,-180 1077.21,-180 1077.21,-180 1071.21,-180 1065.21,-174 1065.21,-168 1065.21,-168 1065.21,-156 1065.21,-156 1065.21,-150 1071.21,-144 1077.21,-144 1077.21,-144 1229.21,-144 1229.21,-144 1235.21,-144 1241.21,-150 1241.21,-156 1241.21,-156 1241.21,-168 1241.21,-168 1241.21,-174 1235.21,-180 1229.21,-180"/>
<text text-anchor="middle" x="1153.21" y="-159.5" font-family="sans" font-size="10.00">merge_fidelity_single_mutations</text>
</g>
<!-- 12&#45;&gt;0 -->
<g id="edge12" class="edge"><title>12&#45;&gt;0</title>
<path fill="none" stroke="grey" stroke-width="2" d="M1135.36,-143.871C1109.24,-118.817 1060.5,-72.0519 1030.65,-43.4062"/>
<polygon fill="grey" stroke="grey" stroke-width="2" points="1032.76,-40.587 1023.12,-36.1893 1027.92,-45.6381 1032.76,-40.587"/>
</g>
<!-- 12&#45;&gt;9 -->
<g id="edge25" class="edge"><title>12&#45;&gt;9</title>
<path fill="none" stroke="grey" stroke-width="2" d="M1156.42,-143.697C1157.85,-135.983 1159.58,-126.712 1161.17,-118.112"/>
<polygon fill="grey" stroke="grey" stroke-width="2" points="1164.65,-118.575 1163.03,-108.104 1157.76,-117.297 1164.65,-118.575"/>
</g>
<!-- 12&#45;&gt;10 -->
<g id="edge26" class="edge"><title>12&#45;&gt;10</title>
<path fill="none" stroke="grey" stroke-width="2" d="M1187.94,-143.876C1207.03,-134.469 1230.89,-122.708 1251.25,-112.667"/>
<polygon fill="grey" stroke="grey" stroke-width="2" points="1252.92,-115.751 1260.34,-108.19 1249.82,-109.472 1252.92,-115.751"/>
</g>
<!-- 13 -->
<g id="node14" class="node"><title>13</title>
<path fill="none" stroke="#56b9d8" stroke-width="2" d="M1392.71,-180C1392.71,-180 1271.71,-180 1271.71,-180 1265.71,-180 1259.71,-174 1259.71,-168 1259.71,-168 1259.71,-156 1259.71,-156 1259.71,-150 1265.71,-144 1271.71,-144 1271.71,-144 1392.71,-144 1392.71,-144 1398.71,-144 1404.71,-150 1404.71,-156 1404.71,-156 1404.71,-168 1404.71,-168 1404.71,-174 1398.71,-180 1392.71,-180"/>
<text text-anchor="middle" x="1332.21" y="-159.5" font-family="sans" font-size="10.00">merge_fidelity_translation</text>
</g>
<!-- 13&#45;&gt;0 -->
<g id="edge13" class="edge"><title>13&#45;&gt;0</title>
<path fill="none" stroke="grey" stroke-width="2" d="M1345.57,-143.945C1359.14,-124.418 1375.85,-92.493 1358.21,-72 1319.3,-26.8168 1139.44,-19.6139 1052.5,-18.8229"/>
<polygon fill="grey" stroke="grey" stroke-width="2" points="1052.4,-15.3222 1042.38,-18.7561 1052.36,-22.3221 1052.4,-15.3222"/>
</g>
<!-- 14 -->
<g id="node15" class="node"><title>14</title>
<path fill="none" stroke="#56d8b1" stroke-width="2" d="M1559.71,-180C1559.71,-180 1434.71,-180 1434.71,-180 1428.71,-180 1422.71,-174 1422.71,-168 1422.71,-168 1422.71,-156 1422.71,-156 1422.71,-150 1428.71,-144 1434.71,-144 1434.71,-144 1559.71,-144 1559.71,-144 1565.71,-144 1571.71,-150 1571.71,-156 1571.71,-156 1571.71,-168 1571.71,-168 1571.71,-174 1565.71,-180 1559.71,-180"/>
<text text-anchor="middle" x="1497.21" y="-159.5" font-family="sans" font-size="10.00">merge_fidelity_frameshifts</text>
</g>
<!-- 14&#45;&gt;0 -->
<g id="edge14" class="edge"><title>14&#45;&gt;0</title>
<path fill="none" stroke="grey" stroke-width="2" d="M1479.52,-143.666C1457.22,-122.926 1416.74,-88.8897 1375.21,-72 1265.78,-27.4953 1124.88,-19.4853 1052.6,-18.5715"/>
<polygon fill="grey" stroke="grey" stroke-width="2" points="1052.48,-15.0704 1042.45,-18.4846 1052.42,-22.0701 1052.48,-15.0704"/>
</g>
<!-- 15 -->
<g id="node16" class="node"><title>15</title>
<path fill="none" stroke="#d88556" stroke-width="2" d="M1756.71,-180C1756.71,-180 1601.71,-180 1601.71,-180 1595.71,-180 1589.71,-174 1589.71,-168 1589.71,-168 1589.71,-156 1589.71,-156 1589.71,-150 1595.71,-144 1601.71,-144 1601.71,-144 1756.71,-144 1756.71,-144 1762.71,-144 1768.71,-150 1768.71,-156 1768.71,-156 1768.71,-168 1768.71,-168 1768.71,-174 1762.71,-180 1756.71,-180"/>
<text text-anchor="middle" x="1679.21" y="-159.5" font-family="sans" font-size="10.00">merge_fidelity_single_translation</text>
</g>
<!-- 15&#45;&gt;0 -->
<g id="edge15" class="edge"><title>15&#45;&gt;0</title>
<path fill="none" stroke="grey" stroke-width="2" d="M1637.64,-143.838C1586.94,-123.594 1498.21,-90.3774 1419.21,-72 1288.61,-41.6183 1130.5,-27.4665 1052.89,-21.9557"/>
<polygon fill="grey" stroke="grey" stroke-width="2" points="1052.7,-18.4344 1042.48,-21.2346 1052.22,-25.4176 1052.7,-18.4344"/>
</g>
<!-- 16 -->
<g id="node17" class="node"><title>16</title>
<path fill="none" stroke="#5692d8" stroke-width="2" d="M800.208,-252C800.208,-252 690.208,-252 690.208,-252 684.208,-252 678.208,-246 678.208,-240 678.208,-240 678.208,-228 678.208,-228 678.208,-222 684.208,-216 690.208,-216 690.208,-216 800.208,-216 800.208,-216 806.208,-216 812.208,-222 812.208,-228 812.208,-228 812.208,-240 812.208,-240 812.208,-246 806.208,-252 800.208,-252"/>
<text text-anchor="middle" x="745.208" y="-231.5" font-family="sans" font-size="10.00">calculate_fidelity_based</text>
</g>
<!-- 16&#45;&gt;1 -->
<g id="edge16" class="edge"><title>16&#45;&gt;1</title>
<path fill="none" stroke="grey" stroke-width="2" d="M678.012,-216.751C637.166,-206.658 584.029,-193.142 537.208,-180 458.359,-157.869 368.297,-129.785 309.739,-111.146"/>
<polygon fill="grey" stroke="grey" stroke-width="2" points="310.491,-107.713 299.9,-108.009 308.364,-114.382 310.491,-107.713"/>
</g>
<!-- 16&#45;&gt;2 -->
<g id="edge17" class="edge"><title>16&#45;&gt;2</title>
<path fill="none" stroke="grey" stroke-width="2" d="M705.281,-215.871C644.562,-189.823 529.136,-140.304 463.351,-112.083"/>
<polygon fill="grey" stroke="grey" stroke-width="2" points="464.588,-108.805 454.018,-108.079 461.828,-115.238 464.588,-108.805"/>
</g>
<!-- 16&#45;&gt;5 -->
<g id="edge21" class="edge"><title>16&#45;&gt;5</title>
<path fill="none" stroke="grey" stroke-width="2" d="M716.931,-215.765C701.474,-205.92 682.262,-192.979 666.208,-180 641.257,-159.829 615.188,-134.102 597.197,-115.502"/>
<polygon fill="grey" stroke="grey" stroke-width="2" points="599.456,-112.8 590.009,-108.004 594.403,-117.644 599.456,-112.8"/>
</g>
<!-- 16&#45;&gt;6 -->
<g id="edge22" class="edge"><title>16&#45;&gt;6</title>
<path fill="none" stroke="grey" stroke-width="2" d="M710.526,-215.834C696.901,-207.127 682.74,-195.151 675.208,-180 668.085,-165.673 668.817,-158.668 675.208,-144 680.141,-132.677 688.818,-122.682 697.937,-114.512"/>
<polygon fill="grey" stroke="grey" stroke-width="2" points="700.196,-117.185 705.628,-108.088 695.709,-111.812 700.196,-117.185"/>
</g>
<!-- 16&#45;&gt;7 -->
<g id="edge23" class="edge"><title>16&#45;&gt;7</title>
<path fill="none" stroke="grey" stroke-width="2" d="M728.499,-215.955C711.998,-197.01 691.472,-166.17 708.208,-144 714.804,-135.262 762.961,-121.67 808.617,-110.438"/>
<polygon fill="grey" stroke="grey" stroke-width="2" points="809.72,-113.772 818.609,-108.007 808.065,-106.97 809.72,-113.772"/>
</g>
<!-- 16&#45;&gt;8 -->
<g id="edge24" class="edge"><title>16&#45;&gt;8</title>
<path fill="none" stroke="grey" stroke-width="2" d="M759.298,-215.697C766.131,-207.305 774.465,-197.07 781.963,-187.861"/>
<polygon fill="grey" stroke="grey" stroke-width="2" points="784.68,-190.069 788.28,-180.104 779.252,-185.649 784.68,-190.069"/>
</g>
<!-- 16&#45;&gt;11 -->
<g id="edge27" class="edge"><title>16&#45;&gt;11</title>
<path fill="none" stroke="grey" stroke-width="2" d="M801.421,-215.966C834.118,-206.057 875.512,-193.514 909.808,-183.121"/>
<polygon fill="grey" stroke="grey" stroke-width="2" points="911.187,-186.361 919.742,-180.111 909.157,-179.661 911.187,-186.361"/>
</g>
<!-- 16&#45;&gt;12 -->
<g id="edge28" class="edge"><title>16&#45;&gt;12</title>
<path fill="none" stroke="grey" stroke-width="2" d="M812.26,-221.667C872.979,-211.382 965.19,-195.711 1055.08,-180.19"/>
<polygon fill="grey" stroke="grey" stroke-width="2" points="1055.92,-183.597 1065.18,-178.446 1054.73,-176.699 1055.92,-183.597"/>
</g>
<!-- 16&#45;&gt;13 -->
<g id="edge29" class="edge"><title>16&#45;&gt;13</title>
<path fill="none" stroke="grey" stroke-width="2" d="M812.468,-228.09C907.525,-220.674 1086.75,-204.944 1249.22,-180.063"/>
<polygon fill="grey" stroke="grey" stroke-width="2" points="1250.05,-183.475 1259.4,-178.488 1248.98,-176.558 1250.05,-183.475"/>
</g>
<!-- 16&#45;&gt;14 -->
<g id="edge30" class="edge"><title>16&#45;&gt;14</title>
<path fill="none" stroke="grey" stroke-width="2" d="M812.451,-230.411C931.596,-225.224 1187.67,-211.382 1412.62,-180.132"/>
<polygon fill="grey" stroke="grey" stroke-width="2" points="1413.21,-183.583 1422.63,-178.726 1412.24,-176.651 1413.21,-183.583"/>
</g>
<!-- 16&#45;&gt;15 -->
<g id="edge31" class="edge"><title>16&#45;&gt;15</title>
<path fill="none" stroke="grey" stroke-width="2" d="M812.346,-231.214C952.9,-226.939 1288.52,-213.927 1579.22,-180.165"/>
<polygon fill="grey" stroke="grey" stroke-width="2" points="1580.02,-183.595 1589.54,-178.955 1579.2,-176.643 1580.02,-183.595"/>
</g>
<!-- 17 -->
<g id="node18" class="node"><title>17</title>
<path fill="none" stroke="#d8c356" stroke-width="2" d="M248.208,-396C248.208,-396 156.208,-396 156.208,-396 150.208,-396 144.208,-390 144.208,-384 144.208,-384 144.208,-372 144.208,-372 144.208,-366 150.208,-360 156.208,-360 156.208,-360 248.208,-360 248.208,-360 254.208,-360 260.208,-366 260.208,-372 260.208,-372 260.208,-384 260.208,-384 260.208,-390 254.208,-396 248.208,-396"/>
<text text-anchor="middle" x="202.208" y="-375.5" font-family="sans" font-size="10.00">fidelity_group_reads</text>
</g>
<!-- 17&#45;&gt;3 -->
<g id="edge18" class="edge"><title>17&#45;&gt;3</title>
<path fill="none" stroke="grey" stroke-width="2" d="M197.745,-359.871C191.411,-335.564 179.752,-290.819 172.246,-262.013"/>
<polygon fill="grey" stroke="grey" stroke-width="2" points="175.595,-260.984 169.687,-252.189 168.821,-262.749 175.595,-260.984"/>
</g>
<!-- 20 -->
<g id="node21" class="node"><title>20</title>
<path fill="none" stroke="#d89c56" stroke-width="2" d="M504.208,-324C504.208,-324 442.208,-324 442.208,-324 436.208,-324 430.208,-318 430.208,-312 430.208,-312 430.208,-300 430.208,-300 430.208,-294 436.208,-288 442.208,-288 442.208,-288 504.208,-288 504.208,-288 510.208,-288 516.208,-294 516.208,-300 516.208,-300 516.208,-312 516.208,-312 516.208,-318 510.208,-324 504.208,-324"/>
<text text-anchor="middle" x="473.208" y="-303.5" font-family="sans" font-size="10.00">sort_by_name</text>
</g>
<!-- 17&#45;&gt;20 -->
<g id="edge37" class="edge"><title>17&#45;&gt;20</title>
<path fill="none" stroke="grey" stroke-width="2" d="M260.344,-361.983C307.724,-349.745 374.083,-332.604 420.061,-320.728"/>
<polygon fill="grey" stroke="grey" stroke-width="2" points="421.03,-324.093 429.837,-318.203 419.28,-317.315 421.03,-324.093"/>
</g>
<!-- 18 -->
<g id="node19" class="node"><title>18</title>
<path fill="none" stroke="#56a2d8" stroke-width="2" d="M136.208,-612C136.208,-612 92.2077,-612 92.2077,-612 86.2077,-612 80.2077,-606 80.2077,-600 80.2077,-600 80.2077,-588 80.2077,-588 80.2077,-582 86.2077,-576 92.2077,-576 92.2077,-576 136.208,-576 136.208,-576 142.208,-576 148.208,-582 148.208,-588 148.208,-588 148.208,-600 148.208,-600 148.208,-606 142.208,-612 136.208,-612"/>
<text text-anchor="middle" x="114.208" y="-591.5" font-family="sans" font-size="10.00">sortMaped</text>
</g>
<!-- 18&#45;&gt;4 -->
<g id="edge19" class="edge"><title>18&#45;&gt;4</title>
<path fill="none" stroke="grey" stroke-width="2" d="M80.1965,-586.316C54.9703,-579.386 22.2802,-565.791 6.20767,-540 -2.25456,-526.421 -1.69855,-517.91 6.20767,-504 16.9533,-485.094 37.4048,-472.224 55.9955,-463.905"/>
<polygon fill="grey" stroke="grey" stroke-width="2" points="57.5944,-467.031 65.4863,-459.962 54.9088,-460.567 57.5944,-467.031"/>
</g>
<!-- 19 -->
<g id="node20" class="node"><title>19</title>
<path fill="none" stroke="#56d0d8" stroke-width="2" d="M201.208,-540C201.208,-540 27.2077,-540 27.2077,-540 21.2077,-540 15.2077,-534 15.2077,-528 15.2077,-528 15.2077,-516 15.2077,-516 15.2077,-510 21.2077,-504 27.2077,-504 27.2077,-504 201.208,-504 201.208,-504 207.208,-504 213.208,-510 213.208,-516 213.208,-516 213.208,-528 213.208,-528 213.208,-534 207.208,-540 201.208,-540"/>
<text text-anchor="middle" x="114.208" y="-525" font-family="sans" font-size="10.00">indexing</text>
<text text-anchor="middle" x="114.208" y="-514" font-family="sans" font-size="10.00">stem: ALIGNED/1_duplicated_subSort</text>
</g>
<!-- 18&#45;&gt;19 -->
<g id="edge36" class="edge"><title>18&#45;&gt;19</title>
<path fill="none" stroke="grey" stroke-width="2" d="M114.208,-575.697C114.208,-567.983 114.208,-558.712 114.208,-550.112"/>
<polygon fill="grey" stroke="grey" stroke-width="2" points="117.708,-550.104 114.208,-540.104 110.708,-550.104 117.708,-550.104"/>
</g>
<!-- 21 -->
<g id="node22" class="node"><title>21</title>
<path fill="none" stroke="#d88d56" stroke-width="2" d="M284.708,-540C284.708,-540 243.708,-540 243.708,-540 237.708,-540 231.708,-534 231.708,-528 231.708,-528 231.708,-516 231.708,-516 231.708,-510 237.708,-504 243.708,-504 243.708,-504 284.708,-504 284.708,-504 290.708,-504 296.708,-510 296.708,-516 296.708,-516 296.708,-528 296.708,-528 296.708,-534 290.708,-540 284.708,-540"/>
<text text-anchor="middle" x="264.208" y="-519.5" font-family="sans" font-size="10.00">fix_mates</text>
</g>
<!-- 18&#45;&gt;21 -->
<g id="edge38" class="edge"><title>18&#45;&gt;21</title>
<path fill="none" stroke="grey" stroke-width="2" d="M148.245,-577.116C170.201,-566.87 198.912,-553.471 222.273,-542.57"/>
<polygon fill="grey" stroke="grey" stroke-width="2" points="224.01,-545.621 231.592,-538.221 221.05,-539.278 224.01,-545.621"/>
</g>
<!-- 19&#45;&gt;4 -->
<g id="edge20" class="edge"><title>19&#45;&gt;4</title>
<path fill="none" stroke="grey" stroke-width="2" d="M109.511,-503.697C107.394,-495.898 104.846,-486.509 102.49,-477.829"/>
<polygon fill="grey" stroke="grey" stroke-width="2" points="105.848,-476.838 99.8503,-468.104 99.0921,-478.672 105.848,-476.838"/>
</g>
<!-- 20&#45;&gt;16 -->
<g id="edge32" class="edge"><title>20&#45;&gt;16</title>
<path fill="none" stroke="grey" stroke-width="2" d="M516.307,-293.908C557.314,-283.355 619.907,-267.247 669.28,-254.54"/>
<polygon fill="grey" stroke="grey" stroke-width="2" points="670.156,-257.929 678.968,-252.047 668.411,-251.15 670.156,-257.929"/>
</g>
<!-- 21&#45;&gt;17 -->
<g id="edge33" class="edge"><title>21&#45;&gt;17</title>
<path fill="none" stroke="grey" stroke-width="2" d="M231.36,-507.776C214.606,-499.146 195.785,-486.086 186.208,-468 175.932,-448.595 181.661,-423.828 188.973,-405.35"/>
<polygon fill="grey" stroke="grey" stroke-width="2" points="192.231,-406.633 192.985,-396.065 185.805,-403.856 192.231,-406.633"/>
</g>
<!-- 22 -->
<g id="node23" class="node"><title>22</title>
<path fill="none" stroke="#56d0d8" stroke-width="2" d="M358.708,-468C358.708,-468 207.708,-468 207.708,-468 201.708,-468 195.708,-462 195.708,-456 195.708,-456 195.708,-444 195.708,-444 195.708,-438 201.708,-432 207.708,-432 207.708,-432 358.708,-432 358.708,-432 364.708,-432 370.708,-438 370.708,-444 370.708,-444 370.708,-456 370.708,-456 370.708,-462 364.708,-468 358.708,-468"/>
<text text-anchor="middle" x="283.208" y="-453" font-family="sans" font-size="10.00">indexing</text>
<text text-anchor="middle" x="283.208" y="-442" font-family="sans" font-size="10.00">stem: 1_duplicated_fixed_mates</text>
</g>
<!-- 21&#45;&gt;22 -->
<g id="edge39" class="edge"><title>21&#45;&gt;22</title>
<path fill="none" stroke="grey" stroke-width="2" d="M268.904,-503.697C271.021,-495.898 273.57,-486.509 275.925,-477.829"/>
<polygon fill="grey" stroke="grey" stroke-width="2" points="279.323,-478.672 278.565,-468.104 272.568,-476.838 279.323,-478.672"/>
</g>
<!-- 22&#45;&gt;17 -->
<g id="edge34" class="edge"><title>22&#45;&gt;17</title>
<path fill="none" stroke="grey" stroke-width="2" d="M263.185,-431.697C253.082,-422.965 240.672,-412.24 229.69,-402.75"/>
<polygon fill="grey" stroke="grey" stroke-width="2" points="231.855,-399.995 222,-396.104 227.277,-405.291 231.855,-399.995"/>
</g>
<!-- 23 -->
<g id="node24" class="node"><title>23</title>
<path fill="none" stroke="#56d8a2" stroke-width="2" d="M147.208,-684C147.208,-684 81.2077,-684 81.2077,-684 75.2077,-684 69.2077,-678 69.2077,-672 69.2077,-672 69.2077,-660 69.2077,-660 69.2077,-654 75.2077,-648 81.2077,-648 81.2077,-648 147.208,-648 147.208,-648 153.208,-648 159.208,-654 159.208,-660 159.208,-660 159.208,-672 159.208,-672 159.208,-678 153.208,-684 147.208,-684"/>
<text text-anchor="middle" x="114.208" y="-663.5" font-family="sans" font-size="10.00">pair_align_bwa</text>
</g>
<!-- 23&#45;&gt;18 -->
<g id="edge35" class="edge"><title>23&#45;&gt;18</title>
<path fill="none" stroke="grey" stroke-width="2" d="M114.208,-647.697C114.208,-639.983 114.208,-630.712 114.208,-622.112"/>
<polygon fill="grey" stroke="grey" stroke-width="2" points="117.708,-622.104 114.208,-612.104 110.708,-622.104 117.708,-622.104"/>
</g>
<!-- 24 -->
<g id="node25" class="node"><title>24</title>
<path fill="none" stroke="#59d856" stroke-width="2" d="M158.708,-756C158.708,-756 69.7077,-756 69.7077,-756 63.7077,-756 57.7077,-750 57.7077,-744 57.7077,-744 57.7077,-732 57.7077,-732 57.7077,-726 63.7077,-720 69.7077,-720 69.7077,-720 158.708,-720 158.708,-720 164.708,-720 170.708,-726 170.708,-732 170.708,-732 170.708,-744 170.708,-744 170.708,-750 164.708,-756 158.708,-756"/>
<text text-anchor="middle" x="114.208" y="-735.5" font-family="sans" font-size="10.00">trim_adapters_pe_2</text>
</g>
<!-- 24&#45;&gt;23 -->
<g id="edge40" class="edge"><title>24&#45;&gt;23</title>
<path fill="none" stroke="grey" stroke-width="2" d="M114.208,-719.697C114.208,-711.983 114.208,-702.712 114.208,-694.112"/>
<polygon fill="grey" stroke="grey" stroke-width="2" points="117.708,-694.104 114.208,-684.104 110.708,-694.104 117.708,-694.104"/>
</g>
<!-- 25 -->
<g id="node26" class="node"><title>25</title>
<path fill="none" stroke="#56d8c9" stroke-width="2" d="M139.708,-828C139.708,-828 88.7077,-828 88.7077,-828 82.7077,-828 76.7077,-822 76.7077,-816 76.7077,-816 76.7077,-804 76.7077,-804 76.7077,-798 82.7077,-792 88.7077,-792 88.7077,-792 139.708,-792 139.708,-792 145.708,-792 151.708,-798 151.708,-804 151.708,-804 151.708,-816 151.708,-816 151.708,-822 145.708,-828 139.708,-828"/>
<text text-anchor="middle" x="114.208" y="-807.5" font-family="sans" font-size="10.00">extract_umi</text>
</g>
<!-- 25&#45;&gt;24 -->
<g id="edge41" class="edge"><title>25&#45;&gt;24</title>
<path fill="none" stroke="grey" stroke-width="2" d="M114.208,-791.697C114.208,-783.983 114.208,-774.712 114.208,-766.112"/>
<polygon fill="grey" stroke="grey" stroke-width="2" points="117.708,-766.104 114.208,-756.104 110.708,-766.104 117.708,-766.104"/>
</g>
<!-- 26 -->
<g id="node27" class="node"><title>26</title>
<path fill="none" stroke="#d85e56" stroke-width="2" d="M93.2077,-900C93.2077,-900 49.2077,-900 49.2077,-900 43.2077,-900 37.2077,-894 37.2077,-888 37.2077,-888 37.2077,-876 37.2077,-876 37.2077,-870 43.2077,-864 49.2077,-864 49.2077,-864 93.2077,-864 93.2077,-864 99.2077,-864 105.208,-870 105.208,-876 105.208,-876 105.208,-888 105.208,-888 105.208,-894 99.2077,-900 93.2077,-900"/>
<text text-anchor="middle" x="71.2077" y="-879.5" font-family="sans" font-size="10.00">get_fastq1</text>
</g>
<!-- 26&#45;&gt;25 -->
<g id="edge42" class="edge"><title>26&#45;&gt;25</title>
<path fill="none" stroke="grey" stroke-width="2" d="M81.8369,-863.697C86.8358,-855.559 92.8987,-845.689 98.4197,-836.701"/>
<polygon fill="grey" stroke="grey" stroke-width="2" points="101.449,-838.457 103.701,-828.104 95.4842,-834.793 101.449,-838.457"/>
</g>
<!-- 27 -->
<g id="node28" class="node"><title>27</title>
<path fill="none" stroke="#bed856" stroke-width="2" d="M179.208,-900C179.208,-900 135.208,-900 135.208,-900 129.208,-900 123.208,-894 123.208,-888 123.208,-888 123.208,-876 123.208,-876 123.208,-870 129.208,-864 135.208,-864 135.208,-864 179.208,-864 179.208,-864 185.208,-864 191.208,-870 191.208,-876 191.208,-876 191.208,-888 191.208,-888 191.208,-894 185.208,-900 179.208,-900"/>
<text text-anchor="middle" x="157.208" y="-879.5" font-family="sans" font-size="10.00">get_fastq2</text>
</g>
<!-- 27&#45;&gt;25 -->
<g id="edge43" class="edge"><title>27&#45;&gt;25</title>
<path fill="none" stroke="grey" stroke-width="2" d="M146.578,-863.697C141.58,-855.559 135.517,-845.689 129.996,-836.701"/>
<polygon fill="grey" stroke="grey" stroke-width="2" points="132.931,-834.793 124.715,-828.104 126.967,-838.457 132.931,-834.793"/>
</g>
<!-- 28 -->
<g id="node29" class="node"><title>28</title>
<path fill="none" stroke="#566bd8" stroke-width="2" d="M193.208,-972C193.208,-972 35.2077,-972 35.2077,-972 29.2077,-972 23.2077,-966 23.2077,-960 23.2077,-960 23.2077,-948 23.2077,-948 23.2077,-942 29.2077,-936 35.2077,-936 35.2077,-936 193.208,-936 193.208,-936 199.208,-936 205.208,-942 205.208,-948 205.208,-948 205.208,-960 205.208,-960 205.208,-966 199.208,-972 193.208,-972"/>
<text text-anchor="middle" x="114.208" y="-957" font-family="sans" font-size="10.00">generate_script_for_merging_files</text>
<text text-anchor="middle" x="114.208" y="-946" font-family="sans" font-size="10.00">stem: 1_duplicated</text>
</g>
<!-- 28&#45;&gt;26 -->
<g id="edge44" class="edge"><title>28&#45;&gt;26</title>
<path fill="none" stroke="grey" stroke-width="2" d="M103.578,-935.697C98.5796,-927.559 92.5167,-917.689 86.9956,-908.701"/>
<polygon fill="grey" stroke="grey" stroke-width="2" points="89.9311,-906.793 81.7146,-900.104 83.9666,-910.457 89.9311,-906.793"/>
</g>
<!-- 28&#45;&gt;27 -->
<g id="edge45" class="edge"><title>28&#45;&gt;27</title>
<path fill="none" stroke="grey" stroke-width="2" d="M124.837,-935.697C129.836,-927.559 135.899,-917.689 141.42,-908.701"/>
<polygon fill="grey" stroke="grey" stroke-width="2" points="144.449,-910.457 146.701,-900.104 138.484,-906.793 144.449,-910.457"/>
</g>
</g>
</svg>
